<?xml version="1.0" encoding="UTF-8"?>
<!DOCTYPE svg PUBLIC "-//W3C//DTD SVG 1.1//EN" "http://www.w3.org/Graphics/SVG/1.1/DTD/svg11.dtd">
<!-- Creator: CorelDRAW X7 -->
<svg xmlns="http://www.w3.org/2000/svg" xml:space="preserve" width="252.376mm" height="179.598mm" version="1.1" style="shape-rendering:geometricPrecision; text-rendering:geometricPrecision; image-rendering:optimizeQuality; fill-rule:evenodd; clip-rule:evenodd"
viewBox="0 0 25238 17960"
 xmlns:xlink="http://www.w3.org/1999/xlink">
 <defs>
  <style type="text/css">
   <![CDATA[
    .str3 {stroke:white;stroke-width:42.33}
    .str0 {stroke:white;stroke-width:84.6701;stroke-linecap:round;stroke-linejoin:round}
    .str1 {stroke:white;stroke-width:169.33;stroke-linecap:round;stroke-linejoin:round}
    .str2 {stroke:white;stroke-width:42.33;stroke-linecap:round;stroke-linejoin:round}
    .fil3 {fill:none}
    .fil5 {fill:none;fill-rule:nonzero}
    .fil2 {fill:black}
    .fil4 {fill:black}
    .fil1 {fill:white}
    .fil0 {fill:white;fill-rule:nonzero}
   ]]>
  </style>
    <clipPath id="id0" style="clip-rule:nonzero">
     <path d="M12564 8900c-52,8 -105,14 -160,22 -50,316 -97,632 -145,948 0,6 -15,166 210,326 30,23 63,47 95,69 33,0 65,2 100,2 -280,-204 -247,-409 -247,-409 47,-320 97,-639 147,-958zm397 -4390c-29,6 -58,11 -90,16 -28,193 -55,385 -81,578 0,3 -10,100 118,198 18,13 35,27 53,40 19,0 38,0 58,0 -158,-122 -141,-246 -141,-246 28,-195 55,-391 83,-586zm937 -1697c-19,2 -38,4 -57,6 -19,15 -36,30 -53,45 -128,109 -119,206 -119,210 47,330 94,660 141,990 47,329 94,659 141,989 1,6 21,105 183,199 23,15 47,29 71,42 15,-1 30,-2 46,-2 -194,-114 -212,-238 -212,-238 0,0 0,0 0,0 -47,-331 -94,-661 -141,-991 -47,-329 -94,-659 -141,-989 0,0 -17,-124 141,-261zm-834 360c-23,159 -46,317 -68,474 -22,159 -45,317 -67,474 29,-6 60,-13 90,-20 22,-154 44,-309 66,-463 22,-155 44,-310 66,-465 -1,-1 -1,-1 -1,-2 -29,1 -58,2 -86,2zm3746 -685c0,0 -17,-132 141,-324 -19,7 -38,13 -57,20 -18,21 -36,43 -53,64 -129,154 -119,260 -119,261 47,354 94,708 141,1065 47,358 94,718 141,1080 0,4 19,113 182,199 24,13 48,25 72,38 15,-3 30,-6 46,-9 -194,-103 -212,-240 -212,-240 -47,-363 -94,-725 -141,-1085 -47,-357 -94,-714 -141,-1069 0,0 0,0 0,0zm-1681 1262c-28,207 -56,413 -83,619 -27,206 -56,410 -83,614 -1,6 -7,107 118,196 17,13 36,25 54,37 19,-2 38,-4 57,-7 -158,-110 -141,-241 -141,-241 0,0 0,0 0,0 23,-173 46,-347 69,-520 23,-174 47,-349 71,-524 -21,-58 -42,-116 -62,-174zm349 -1182c-14,16 -27,31 -39,47 -104,123 -75,216 -73,220 58,164 118,328 176,493 59,166 119,329 178,494 14,-45 28,-90 42,-136 -51,-142 -103,-285 -154,-426 -51,-143 -101,-286 -152,-428 -3,-7 -40,-126 88,-277 -22,4 -44,8 -66,13zm833 957c-54,179 -109,357 -163,532 -53,174 -108,348 -162,521 28,-5 57,-9 86,-14 43,-140 88,-282 131,-424 43,-144 88,-288 132,-433 -8,-61 -16,-121 -24,-182zm-4544 -431c0,165 0,331 1,496 29,2 59,3 89,5 -1,-165 -1,-331 -1,-496 0,0 0,0 0,-1 0,1 0,1 0,1 0,0 0,-125 176,-238 -17,-1 -35,-2 -52,-3 -21,13 -42,27 -62,40 -145,93 -150,192 -151,196zm89 1990c0,0 0,0 0,0 0,0 0,0 0,0 0,-166 0,-331 0,-497 -30,-1 -60,-2 -89,-3 0,132 0,265 0,397 0,33 0,67 0,100 1,3 6,101 151,209 20,16 41,31 62,46 17,1 35,1 52,2 -176,-130 -176,-254 -176,-254zm-1055 -2013c-30,-4 -60,-8 -88,-12 0,135 0,270 0,405 0,135 0,270 0,404 27,-3 57,-5 88,-7 0,-131 0,-263 0,-395 0,-131 0,-263 0,-395zm0 1213c-30,3 -60,6 -88,9 0,110 0,221 0,331 0,110 0,220 0,331 28,3 58,5 88,8 0,-113 0,-227 0,-340 0,-113 0,-226 0,-339zm-1758 543c0,4 5,110 149,239 20,18 42,37 63,54 17,2 34,5 51,7 -175,-155 -175,-288 -175,-288 0,-344 0,-687 0,-1030 0,-343 0,-687 0,-1031 -30,-6 -59,-13 -88,-18 0,344 0,689 0,1033 0,345 0,689 0,1034zm-704 -2246c0,69 0,138 0,206 0,4 5,115 150,263 9,9 17,18 26,26 0,-18 0,-37 0,-55 -88,-125 -88,-211 -88,-211 0,-69 0,-137 0,-206 -30,-7 -60,-14 -88,-23zm5877 3596c-35,0 -67,1 -100,2 -32,23 -65,47 -95,70 -225,170 -210,329 -207,336 82,546 165,1091 247,1639 83,549 165,1100 248,1652 2,11 37,177 322,362 43,27 85,55 127,81 25,2 53,3 80,4 -342,-222 -372,-431 -372,-431 0,0 0,0 0,0 -85,-553 -167,-1106 -250,-1655 -82,-550 -165,-1098 -247,-1645 0,0 -30,-205 247,-415zm-1472 537c-40,259 -82,517 -120,774 -37,257 -80,514 -117,772 52,-9 105,-18 157,-26 38,-253 78,-506 115,-759 38,-253 78,-507 118,-761 0,-1 0,-2 0,-3 -53,1 -103,2 -153,3zm-5733 -580c0,328 0,656 0,984 52,5 105,10 157,15 -2,-326 -2,-651 -2,-976 0,-1 0,-1 0,-1 0,1 0,1 0,1 0,0 0,-245 312,-432 -32,-6 -62,-11 -92,-16 -38,21 -75,43 -110,65 -255,159 -265,352 -265,360zm155 3928c0,1 0,1 0,1 0,0 0,-1 0,-1 0,-325 0,-651 0,-977 -53,2 -105,3 -155,4 0,263 0,526 0,788 0,67 0,132 0,197 0,7 10,202 265,379 35,24 72,49 110,73 30,-2 60,-6 92,-10 -312,-210 -312,-454 -312,-454zm-1862 -4100c-53,-10 -105,-20 -155,-29 0,298 0,595 0,891 0,298 0,595 0,891 50,-10 102,-19 155,-28 0,-287 0,-575 0,-863 0,-286 0,-575 0,-862zm0 2648c-53,14 -105,27 -155,40 0,243 0,487 0,730 0,243 0,486 0,729 50,-5 102,-10 155,-15 0,-247 0,-495 0,-742 0,-247 0,-495 0,-742zm10707 1235c50,2 102,5 155,8 0,-547 0,-1095 0,-1642 0,-548 0,-1095 0,-1643 -53,6 -105,10 -155,16 0,543 0,1087 0,1631 0,543 0,1087 0,1630zm1589 -3991c168,80 273,225 273,406 0,636 0,1271 0,1907 0,635 0,1269 0,1905 0,181 -105,334 -273,425 248,-37 427,-200 427,-413 0,-641 0,-1282 0,-1923 0,-642 0,-1283 0,-1924 0,-214 -179,-364 -427,-383zm-16220 -1053c88,727 174,1443 262,2148 87,696 178,1382 268,2057 25,-195 50,-391 77,-585 -75,-573 -150,-1153 -225,-1738 -75,-594 -150,-1197 -225,-1806 0,0 -47,-383 218,-651 -38,-14 -73,-28 -108,-41 -30,29 -57,58 -85,87 -212,220 -184,517 -182,529zm2339 167c-305,186 -352,440 -352,443 -125,821 -254,1659 -375,2515 -124,872 -247,1764 -370,2670 -2,10 -30,276 183,503 27,32 55,62 85,91 35,-7 70,-14 107,-22 -265,-279 -217,-620 -217,-620 122,-897 246,-1776 370,-2638 121,-845 249,-1673 374,-2488 3,-11 53,-305 403,-514 -25,-6 -50,-14 -73,-20 -45,27 -90,53 -135,80zm6831 1561c0,559 0,1119 0,1678 0,560 0,1119 0,1678 0,7 7,173 265,334 35,23 70,46 107,69 30,-1 60,-1 93,-1 -310,-198 -310,-407 -310,-407 0,-557 0,-1113 0,-1669 0,-557 0,-1115 0,-1672 0,0 0,-208 310,-391 -33,-3 -63,-4 -93,-8 -37,21 -72,43 -107,65 -260,154 -265,322 -265,324zm-1710 3425c0,-271 0,-543 0,-814 0,-271 0,-543 0,-815 -52,-70 -105,-139 -155,-210 0,308 0,617 0,924 0,308 0,616 0,924 0,6 10,184 265,351 35,23 73,46 110,70 30,-2 60,-5 93,-8 -313,-198 -313,-422 -313,-422zm0 -3576c0,0 0,-223 313,-405 -33,-4 -63,-8 -93,-12 -37,21 -75,42 -110,64 -257,154 -265,335 -265,336 0,129 0,257 0,384 155,220 310,437 465,650 155,210 310,419 468,624 0,-56 0,-113 0,-170 -260,-347 -520,-700 -778,-1060 0,-137 0,-274 0,-411zm12302 -731c0,791 0,1581 0,2372 0,791 0,1581 0,2372 0,8 10,244 264,529 35,42 73,83 110,125 30,6 60,10 93,15 -310,-351 -310,-650 -310,-650 0,-801 0,-1601 0,-2401 0,-800 0,-1600 0,-2401 0,0 0,-299 310,-688 -33,9 -63,18 -93,26 -37,48 -75,94 -110,140 -257,317 -264,558 -264,561zm-1862 4415c50,4 102,9 155,14 0,-657 0,-1313 0,-1969 0,-656 0,-1313 0,-1969 -53,9 -105,19 -155,28 0,649 0,1299 0,1949 0,648 0,1298 0,1947zm3741 402c0,-170 0,-342 0,-513 0,0 0,-344 310,-675 -30,-1 -60,-3 -90,-3 -38,40 -75,79 -110,118 -257,269 -265,536 -265,549 0,168 0,337 0,505 50,7 102,14 155,19zm-155 -5098c0,335 0,670 0,1004 0,335 0,669 0,1004 48,-17 100,-39 155,-63 0,-332 0,-662 0,-994 0,-331 0,-662 0,-994 -53,15 -105,29 -155,43zm2127 -1501c-255,422 -265,737 -265,750 0,524 0,1046 0,1569 50,-10 102,-22 155,-32 0,-530 0,-1061 0,-1591 0,0 0,0 0,0 0,0 0,0 0,0 0,0 0,-397 312,-919 -32,13 -62,25 -92,36 -38,63 -75,126 -110,187zm-537 3183c167,154 272,408 272,707 0,524 0,1049 0,1571 0,524 0,1048 0,1571 0,299 -105,545 -272,688 247,-48 427,-309 427,-663 0,-529 0,-1060 0,-1590 0,-529 0,-1059 0,-1590 0,-353 -180,-628 -427,-694zm-19196 5137c0,282 0,564 0,845 0,282 0,564 0,845 20,-9 40,-18 60,-28 0,-281 0,-562 0,-843 0,-282 0,-563 0,-844 0,0 0,-109 119,-268 -13,5 -25,10 -36,15 -14,19 -28,37 -41,56 -99,132 -102,222 -102,222zm770 988c-20,7 -40,13 -58,19 -2,128 -2,255 -2,383 0,16 0,31 2,47 0,3 3,87 100,144 14,9 28,17 42,24 10,-3 23,-7 35,-11 -119,-69 -119,-176 -119,-176 0,0 0,0 0,0 0,0 0,0 0,-1 0,-142 0,-286 0,-429zm3981 -1652c0,141 0,283 0,425 19,2 39,4 59,7 0,-142 0,-284 0,-426 0,0 0,-107 118,-198 -12,-2 -23,-3 -34,-4 -15,10 -29,21 -43,32 -97,76 -100,160 -100,164zm-710 1577c18,1 38,2 58,3 0,-94 0,-188 0,-282 0,-94 0,-188 0,-282 -18,4 -38,8 -58,12 0,92 0,183 0,275 0,91 0,183 0,274zm0 -888c18,-4 38,-9 58,-12 0,-115 0,-229 0,-344 0,-114 0,-229 0,-344 -20,-2 -40,-3 -58,-3 0,117 0,235 0,352 0,117 0,234 0,351zm769 1021c0,-1 0,-2 0,-2 0,-125 0,-249 0,-373 0,-124 0,-248 0,-372 0,-94 -68,-182 -164,-220 63,55 105,132 105,213 0,124 0,249 0,373 0,124 0,248 0,372 0,13 9,93 100,187 14,14 28,28 43,42 11,2 22,3 34,5 -109,-112 -117,-210 -118,-225zm-1404 -1802c0,283 0,566 0,850 0,283 0,566 0,849 0,3 3,87 101,179 14,12 28,26 42,38 11,1 22,1 34,1 -117,-110 -117,-216 -117,-216 0,-283 0,-566 0,-849 0,-283 0,-567 0,-850 0,0 0,-106 117,-208 -12,0 -23,-1 -34,-1 -14,12 -28,24 -42,36 -98,84 -101,170 -101,171zm-651 1736c0,-130 0,-260 0,-390 0,-130 0,-260 0,-390 -20,-32 -40,-63 -60,-94 0,146 0,293 0,439 0,146 0,293 0,439 0,3 3,87 102,169 14,12 28,23 42,35 10,-1 21,-2 33,-3 -117,-98 -117,-205 -117,-205zm0 -1712c0,0 0,-107 117,-218 -12,1 -23,1 -33,1 -14,13 -28,26 -42,40 -99,94 -102,180 -102,181 0,61 0,122 0,183 59,94 119,190 177,284 59,96 119,190 179,285 0,-28 0,-56 0,-84 -98,-158 -197,-317 -296,-476 0,-65 0,-130 0,-196zm-699 89c0,286 0,573 0,859 0,286 0,572 0,858 0,3 3,88 101,158 14,10 28,20 42,29 11,-2 22,-4 34,-6 -117,-85 -117,-192 -117,-192 0,-286 0,-571 0,-857 0,-285 0,-571 0,-857 0,0 0,-107 117,-230 -12,1 -23,3 -34,4 -14,15 -28,29 -42,44 -98,102 -101,189 -101,190zm-711 1822c19,-5 39,-12 59,-18 0,-267 0,-535 0,-802 0,-268 0,-536 0,-803 -20,5 -40,10 -59,14 0,268 0,537 0,805 0,268 0,536 0,804zm4053 -1105c20,-2 40,-4 60,-6 0,-98 0,-196 0,-294 0,-98 0,-197 0,-295 -20,-3 -40,-5 -60,-8 0,101 0,201 0,302 0,100 0,201 0,301zm0 1004c20,4 40,7 60,11 0,-113 0,-226 0,-339 0,-113 0,-226 0,-339 -20,2 -38,4 -60,5 0,111 0,221 0,332 0,110 0,220 0,330zm771 -1007c0,-182 0,-365 0,-548 0,-97 -70,-189 -164,-229 64,58 104,138 104,221 0,182 0,364 0,546 0,60 -20,114 -59,154 39,54 59,114 59,174 0,146 0,292 0,437 0,146 0,292 0,437 0,83 -40,149 -104,185 94,-7 164,-74 164,-172 0,-146 0,-292 0,-438 0,-146 0,-292 0,-438 0,-66 -31,-130 -80,-178 49,-32 80,-86 80,-151zm1160 -400c0,309 0,618 0,928 0,309 0,618 0,927 0,3 5,96 102,214 14,17 28,34 42,51 10,2 23,5 35,8 -119,-144 -119,-260 -119,-260 0,-310 0,-621 0,-930 0,-311 0,-621 0,-931 0,0 0,-117 119,-223 -12,-1 -25,-2 -35,-3 -14,13 -28,25 -42,37 -99,88 -102,181 -102,182zm-710 1644c20,4 40,9 60,13 0,-280 0,-561 0,-841 0,-280 0,-560 0,-840 -20,-3 -40,-5 -60,-8 0,279 0,559 0,838 0,279 0,559 0,838zm1495 -195c-19,2 -39,3 -60,4 -19,184 -37,368 -56,551 0,3 -6,96 80,213 11,15 23,31 36,47 12,3 24,6 38,9 -106,-144 -94,-263 -94,-263 19,-186 37,-373 56,-561zm631 -1575c-13,0 -26,-1 -38,-2 -12,14 -25,27 -37,40 -85,97 -80,195 -79,199 31,336 64,675 94,1013 31,340 64,682 96,1024 0,6 14,110 122,236 15,18 32,37 49,56 9,1 18,3 29,5 -129,-151 -142,-281 -142,-281 0,0 0,0 0,0 -32,-343 -64,-685 -95,-1026 -31,-340 -63,-679 -94,-1018 0,0 -11,-126 95,-246zm-562 274c-15,154 -32,307 -46,460 -14,153 -31,305 -45,457 20,-3 40,-6 62,-9 14,-150 29,-300 43,-450 14,-150 29,-301 45,-452 0,-1 0,-1 0,-2 -20,-1 -41,-2 -59,-4zm1254 822c19,-5 39,-9 59,-14 0,-120 0,-241 0,-361 0,-121 0,-241 0,-362 -20,-1 -40,-2 -59,-2 0,123 0,247 0,370 0,123 0,246 0,369zm59 1308c0,-150 0,-299 0,-449 0,-150 0,-300 0,-450 -19,4 -39,8 -59,11 0,147 0,293 0,440 0,146 0,292 0,438 0,4 3,109 101,235 13,18 27,37 41,54 11,2 23,4 36,5 -119,-152 -119,-284 -119,-284zm652 -2094c0,227 0,454 0,681 0,74 -22,144 -60,200 38,61 60,134 60,208 0,182 0,364 0,545 0,181 0,363 0,545 0,3 3,112 100,237 14,18 28,36 42,54 10,1 23,3 35,4 -119,-152 -119,-288 -119,-288 0,-182 0,-365 0,-546 0,-182 0,-364 0,-547 0,-81 -30,-156 -80,-209 50,-47 80,-118 80,-200 0,-227 0,-455 0,-682 0,-122 -67,-226 -163,-262 63,63 105,156 105,260zm653 2172c19,1 39,2 59,3 0,-351 0,-702 0,-1053 0,-351 0,-702 0,-1054 -20,1 -40,1 -59,1 0,351 0,702 0,1052 0,350 0,701 0,1051zm606 -2456c65,63 105,160 105,269 0,383 0,766 0,1149 0,383 0,765 0,1148 0,109 -40,204 -105,266 95,-31 163,-135 163,-263 0,-383 0,-767 0,-1150 0,-384 0,-767 0,-1151 0,-127 -68,-234 -163,-268zm684 242c0,1 0,3 0,4 0,374 0,748 0,1121 0,374 0,748 0,1121 0,24 0,48 0,72 0,4 3,119 100,237 14,17 28,34 43,51 11,-1 22,-1 34,-1 -118,-143 -118,-288 -118,-288 0,0 0,0 0,0 0,-387 0,-774 0,-1161 0,-387 0,-773 0,-1161 0,0 0,0 0,0 0,0 0,-145 118,-299 -12,1 -23,2 -34,2 -15,19 -29,37 -43,55 -97,127 -100,242 -100,247zm1372 -106c0,389 0,777 0,1165 0,388 0,775 0,1163 0,4 4,119 101,229 14,15 28,31 42,46 11,-1 23,-2 35,-3 -118,-133 -118,-278 -118,-278 0,-388 0,-776 0,-1164 0,-388 0,-776 0,-1164 0,0 0,-146 118,-304 -12,1 -24,3 -35,4 -14,19 -28,37 -42,56 -98,132 -101,249 -101,250zm-651 2397c0,-178 0,-356 0,-533 0,-178 0,-355 0,-534 -20,-42 -40,-86 -60,-128 0,200 0,400 0,600 0,200 0,401 0,601 0,3 3,119 102,230 14,15 28,31 42,47 10,-2 23,-3 35,-4 -119,-133 -119,-279 -119,-279zm0 -2341c0,0 0,-146 119,-301 -12,1 -25,2 -35,2 -14,19 -28,37 -42,56 -99,128 -102,246 -102,248 0,83 0,166 0,249 59,130 119,259 177,389 59,128 119,257 179,385 0,-38 0,-77 0,-116 -98,-213 -197,-428 -296,-644 0,-89 0,-178 0,-268zm2007 -216c0,188 0,375 0,563 20,-3 40,-6 60,-8 0,-188 0,-375 0,-563 0,0 0,-140 119,-294 -13,1 -25,3 -36,4 -14,18 -28,36 -41,54 -99,128 -102,239 -102,244zm-711 2319c20,-4 40,-8 60,-12 0,-127 0,-254 0,-382 0,-127 0,-255 0,-382 -20,10 -40,20 -60,30 0,124 0,249 0,373 0,124 0,249 0,373zm0 -1207c20,-10 40,-19 60,-29 0,-156 0,-311 0,-466 0,-156 0,-311 0,-467 -20,3 -40,5 -60,7 0,160 0,319 0,478 0,159 0,318 0,477zm771 1132c0,-1 0,-2 0,-3 0,-164 0,-328 0,-492 0,-164 0,-328 0,-492 0,-125 -69,-220 -163,-242 63,55 103,145 103,252 0,165 0,329 0,493 0,165 0,329 0,494 1,16 9,119 102,210 13,14 27,27 41,41 11,-3 23,-5 36,-8 -110,-107 -119,-234 -119,-253zm-10305 -11119c0,0 0,-129 176,-226 -17,-3 -34,-6 -51,-10 -21,12 -42,23 -63,34 -146,81 -150,185 -150,186 0,44 0,87 0,130 0,131 0,260 0,390 29,5 58,10 88,14 0,-172 0,-345 0,-518 0,0 0,0 0,0 0,0 0,0 0,0z"/>
    </clipPath>
 </defs>
 <g id="Capa_x0020_1">
  <metadata id="CorelCorpID_0Corel-Layer"/>
  <g id="_1008615961824">
   <path class="fil0" d="M14156 9881c-2,0 -2,0 -2,0 -83,-551 -165,-1100 -248,-1647 -82,-546 -165,-1092 -247,-1637 0,0 -33,-204 247,-414 -725,14 -1449,17 -2172,-6 278,213 248,415 248,416 -48,299 -93,596 -138,894 -45,299 -90,598 -135,898 170,-4 390,-44 635,-90 43,-282 85,-563 128,-843 42,-281 85,-562 130,-841 145,1 290,-2 435,-4 40,274 84,547 124,821 40,274 85,547 128,822 -822,65 -1590,364 -1867,180 0,137 95,247 232,320 -30,185 -60,373 -87,559 -28,187 -55,373 -83,560 0,0 0,0 0,0 0,0 -30,206 -372,416 412,-6 827,-13 1242,-20 -280,-197 -247,-403 -247,-403 25,-172 50,-343 75,-514 25,-172 52,-343 80,-515 407,-28 687,-142 1087,-178 30,203 60,405 90,608 30,203 62,405 95,607 0,0 0,0 0,0 0,0 30,205 -248,405 413,7 828,16 1243,34 -343,-220 -373,-428 -373,-428z"/>
   <path class="fil0" d="M6856 8347c0,-237 -195,-419 -430,-494 145,106 250,251 270,426 65,11 117,32 160,68 0,0 0,0 0,0z"/>
   <path class="fil0" d="M4372 5622c0,0 0,-295 -310,-676 102,29 205,57 310,87 827,215 1654,407 2484,578 0,1 0,1 0,1 102,18 205,37 310,56 -310,192 -310,441 -310,441 0,0 0,0 0,0 0,0 0,0 0,0 0,332 0,663 0,995 -313,-30 -622,-66 -932,-104 312,-220 312,-479 312,-479 0,-171 0,-343 0,-516 -415,-81 -830,-161 -1242,-241 0,333 0,666 0,999 0,332 0,665 0,997 -247,62 -455,132 -622,146 0,-380 0,-761 0,-1142 0,-380 0,-761 0,-1142zm2484 4466c0,0 0,0 0,0 0,0 0,-1 0,-1 0,-331 0,-663 0,-994 -313,5 -622,10 -932,19 312,249 312,508 312,508 0,172 0,344 0,516 -415,42 -830,86 -1242,129 0,-288 0,-575 0,-863 0,-287 0,-575 0,-862 585,-109 1290,-427 1552,-201 0,0 0,0 0,0 0,-305 -310,-527 -622,-547 -930,-59 -1552,481 -1862,170 0,238 132,425 310,526 0,307 0,617 0,924 0,308 0,616 0,924 0,0 0,0 0,0 0,0 0,295 -310,642 102,-17 205,-35 310,-53 0,0 0,0 0,0 827,-128 1654,-243 2484,-341 0,0 0,0 0,0 102,-11 205,-23 310,-34 -310,-214 -310,-463 -310,-463 0,1 0,1 0,1z"/>
   <path class="fil0" d="M5924 7792c0,0 0,0 0,0 0,0 0,0 0,0 0,0 0,0 0,0z"/>
   <path class="fil0" d="M17098 5906c-725,90 -1450,170 -2175,222 310,190 310,402 310,402 0,565 0,1129 0,1694 0,565 0,1129 0,1694 0,0 0,211 -310,409 725,35 1450,88 2175,142 342,34 620,-148 620,-409 0,-629 0,-1259 0,-1888 0,-630 0,-1260 0,-1889 0,-262 -278,-423 -620,-377zm0 4107c0,0 0,0 0,0 -415,-23 -830,-46 -1242,-67 0,-576 0,-1151 0,-1726 0,-576 0,-1152 0,-1729 412,-43 827,-86 1242,-129 0,609 0,1217 0,1826 0,608 0,1217 0,1825z"/>
   <path class="fil0" d="M3617 4822c-415,-122 -830,-258 -1242,-393 265,423 217,746 217,746 0,0 0,0 0,0 -115,802 -231,1617 -342,2448 -114,846 -228,1707 -340,2581 -115,-863 -231,-1743 -343,-2638 -113,-911 -227,-1840 -339,-2786 0,0 -48,-392 215,-672 -415,-155 -828,-310 -1240,-466 355,531 402,942 402,942 123,1082 247,2145 370,3186 121,1022 250,2022 375,3003 3,12 43,369 -217,794 102,-24 205,-48 310,-73 412,-92 827,-177 1242,-262 -263,-289 -218,-637 -218,-637 123,-919 249,-1821 373,-2704 121,-866 250,-1715 374,-2546 0,-12 53,-310 403,-523z"/>
   <path class="fil0" d="M10392 6517c0,0 0,-210 313,-395 -415,-34 -830,-68 -1242,-108 309,246 309,460 309,460 0,328 0,657 0,985 0,328 0,657 0,985 -207,-266 -418,-541 -622,-820 -206,-281 -415,-571 -620,-864 0,-138 0,-277 0,-416 0,0 0,-226 310,-412 -415,-55 -829,-110 -1242,-185 313,291 313,524 313,524 0,623 0,1245 0,1868 0,622 0,1244 0,1867 0,0 0,233 -313,497 413,-38 827,-70 1242,-102 -310,-202 -310,-429 -310,-429 0,-384 0,-769 0,-1152 0,-385 0,-768 0,-1153 205,285 414,565 620,838 204,270 415,537 622,798 0,203 0,406 0,609 0,0 0,215 -309,444 412,-20 827,-39 1242,-59 -313,-195 -313,-406 -313,-406 0,-562 0,-1124 0,-1686 0,-563 0,-1125 0,-1688z"/>
   <path class="fil0" d="M18192 5727c310,193 310,439 310,439 0,660 0,1319 0,1978 0,659 0,1318 0,1977 0,0 0,246 -310,460 1035,123 2070,261 3105,428 -310,-344 -310,-637 -310,-637 0,-781 0,-1563 0,-2344 0,-781 0,-1562 0,-2344 0,0 0,-293 310,-675 -1035,282 -2070,520 -3105,718zm2175 99c0,0 0,0 0,0 0,745 0,1491 0,2236 0,746 0,1491 0,2236 -415,-41 -830,-81 -1242,-121 0,-685 0,-1370 0,-2055 0,-685 0,-1370 0,-2056 412,-80 827,-160 1242,-240z"/>
   <path class="fil0" d="M23953 7084c-312,47 -932,468 -1242,499 0,-390 0,-781 0,-1171 0,-390 0,-780 0,-1171 412,-118 827,-237 1242,-370 0,246 0,492 0,737 0,0 0,369 -312,804 310,-65 620,-130 932,-195 0,-517 0,-1035 0,-1552 0,0 0,0 0,0 0,0 0,0 0,0 0,0 0,-388 310,-900 -105,42 -208,82 -310,123 -622,246 -1242,474 -1862,684 0,0 0,0 0,0 -345,117 -622,496 -622,847 0,371 0,742 0,1114 0,370 0,741 0,1112 0,351 277,623 622,607 310,-14 930,-402 1242,-430 0,493 0,985 0,1477 0,491 0,984 0,1475 -415,-65 -830,-122 -1242,-180 0,-223 0,-446 0,-670 0,0 0,-334 310,-659 -312,-9 -622,-20 -932,-30 0,424 0,848 0,1272 0,0 0,0 0,0 0,0 0,317 -310,580 102,17 205,34 310,55 620,120 1242,239 1864,370 0,0 0,0 0,0 343,75 620,-210 620,-639 0,-516 0,-1034 0,-1551 0,-518 0,-1035 0,-1553 0,-428 -277,-735 -620,-685z"/>
   <path class="fil1" d="M8931 14802c-29,-111 -139,-183 -248,-165l-2 0c-3,0 -5,1 -8,1 -5,2 -11,3 -17,5 -183,53 -105,261 -276,247 -176,-14 -283,-218 -283,-218 87,593 940,530 834,130zm3887 177c-30,-112 -143,-184 -254,-161 -110,24 -176,134 -146,246 29,112 143,184 253,161 -239,110 -900,293 -1791,-441 -779,-640 -1365,-927 -1916,-992 -1982,-233 -1220,1860 -258,1408 -875,184 -1157,-1208 332,-1062 557,54 1131,365 1948,934 974,679 1625,230 1758,121 65,-46 96,-129 74,-214zm-3468 -183c-56,95 -179,124 -278,67l-3 -1c-2,-1 -4,-3 -6,-4 -6,-3 -11,-7 -15,-10 -161,-118 -34,-288 -201,-337 -171,-51 -325,105 -325,105 234,-533 1030,-162 828,180z"/>
   <path class="fil1" d="M15604 15098c29,111 138,183 247,166l3 -1c2,0 5,-1 7,-1 6,-1 12,-3 17,-5 183,-53 105,-261 277,-247 176,14 282,218 282,218 -87,-593 -939,-530 -833,-130zm-3887 -177c29,112 143,184 253,161 111,-24 176,-133 147,-246 -30,-112 -143,-184 -254,-161 240,-110 900,-293 1792,441 779,641 1365,927 1915,992 1982,234 1221,-1860 259,-1408 874,-184 1156,1208 -332,1062 -557,-54 -1131,-365 -1948,-934 -975,-679 -1625,-230 -1759,-121 -64,46 -96,129 -73,214zm3468 183c56,-95 179,-124 278,-67l2 1c3,1 5,3 7,4 5,3 10,7 15,10 161,118 34,288 200,337 172,51 325,-105 325,-105 -234,533 -1029,162 -827,-180z"/>
   <path class="fil0" d="M20722 12789c145,-77 365,-315 366,-420 -1,127 334,462 462,462 -128,0 -463,335 -462,462 -1,-127 -336,-462 -463,-462 0,0 38,-11 97,-42zm103 42c72,0 262,-190 263,-263 -1,73 189,263 262,263 -73,0 -263,190 -262,262 -1,-72 -191,-262 -263,-262zm263 -393c-1,108 -286,393 -393,393 107,0 392,285 393,393 -1,-108 284,-393 393,-393 -109,0 -394,-285 -393,-393z"/>
   <path class="fil0" d="M3780 12789c145,-77 365,-315 365,-420 0,127 334,462 463,462 -129,0 -463,335 -463,462 0,-127 -335,-462 -462,-462 0,0 38,-11 97,-42zm103 42c72,0 262,-190 262,-263 0,73 190,263 263,263 -73,0 -263,190 -263,262 0,-72 -190,-262 -262,-262zm262 -393c0,108 -285,393 -393,393 108,0 393,285 393,393 0,-108 284,-393 394,-393 -110,0 -394,-285 -394,-393z"/>
   <g>
    <path class="fil2" d="M870 4325c603,4347 300,2210 918,6485 136,-25 75,-14 309,-46 560,-3870 285,-1935 832,-5849 0,0 -732,5903 -732,5903 -19,91 -482,133 -499,121 -31,-21 -819,-6545 -828,-6614z"/>
   </g>
   <path class="fil3" d="M870 4325l864 6561c0,0 252,-62 410,-75l785 -5896"/>
   <g>
    <path class="fil2" d="M5969 8080c0,0 -256,-53 -599,49 -273,80 -590,158 -710,186l0 2242c0,0 897,-149 1900,-204l0 -809c0,0 22,-247 -159,-247l49 -58c181,0 159,247 159,247l0 864 -49 58c-1023,53 -1949,208 -1949,208l0 -2289 49 -58c0,0 415,-97 759,-199 343,-101 599,-48 599,-48l-49 58zm473 -1200c0,0 8,-7 20,-18 16,-25 28,-53 28,-83 0,-84 0,-957 0,-957 0,0 -1427,-293 -1786,-376l0 2121 -49 59 0 -2192 49 -58c247,62 1835,388 1835,388 0,0 0,873 0,957 0,42 -25,83 -50,112l-48 57 -1 1c-24,29 -47,47 -47,47l49 -58z"/>
   </g>
   <path class="fil3" d="M5994 8051c0,0 -256,-53 -600,48 -344,102 -758,199 -758,199l0 2288c0,0 926,-154 1949,-207l0 -864c0,0 22,-247 -159,-247m-9 -2359c0,0 97,-75 97,-159 0,-84 0,-957 0,-957 0,0 -1587,-326 -1834,-388l0 2192"/>
   <g>
    <path class="fil2" d="M8125 10294c0,0 44,-150 44,-335l0 -3034 0 -117 0 -160 0 -141 0 0 0 -75 0 -49 0 -65 0 -120 0 -66 0 -11 0 -8 49 -58 0 7 0 11 0 67 0 120 0 64 0 49 0 75 0 0 0 141 0 161 0 116 1786 2172 0 -2519c0,0 -10,-98 52,-172l49 -59c25,-29 62,-55 115,-70l-48 59c-37,9 -66,25 -89,43 -38,68 -30,141 -30,141l0 3554 -49 58 0 -917 -1786 -2172 0 2916c0,186 -44,336 -44,336l-49 58z"/>
   </g>
   <path class="fil3" d="M8150 10265c0,0 44,-150 44,-335 0,-186 0,-3846 0,-3846l0 812 1834 2231 0 917 0 -3554c0,0 -20,-192 168,-243"/>
   <g>
    <path class="fil2" d="M13568 8436c0,0 -288,-18 -676,65 -312,68 -665,173 -899,183l-172 1153c0,0 -26,160 -74,218l-1 1 -48 58c-9,10 -18,16 -27,19l49 -58 2 -1c33,-71 50,-179 50,-179l181 -1210 0 0c-40,0 -76,-4 -106,-12l49 -58c207,53 657,-88 1045,-172 284,-61 515,-68 618,-67 -132,-836 -270,-1710 -281,-1773 -22,-123 11,-192 11,-192l-981 -2c4,35 -2,69 -2,69l-225 1632 -49 58 225 -1631c0,0 16,-93 -20,-128l49 -58 1052 2c0,0 -33,68 -11,192 12,64 156,979 290,1833l0 0 0 0c122,772 235,1494 235,1494 0,0 28,229 174,262l-49 59c-146,-34 -174,-263 -174,-263 0,0 -113,-722 -235,-1494z"/>
   </g>
   <path class="fil3" d="M13593 8407c0,0 -288,-19 -676,65 -388,84 -838,225 -1045,172m105 12l-180 1210c0,0 -36,220 -102,238m362 -1965l225 -1631c0,0 15,-93 -20,-128l1052 2c0,0 -33,68 -11,192 22,123 524,3327 524,3327 0,0 29,229 175,262"/>
   <g>
    <path class="fil2" d="M15463 10128c0,0 6,-4 15,-12 23,-36 42,-89 42,-159 0,-163 0,-3444 0,-3444 0,0 0,-138 -68,-157l49 -58 1623 -168c0,0 297,-44 297,174 0,219 0,3713 0,3713 0,0 7,72 -44,133l-49 58c-38,45 -107,84 -233,84 -298,0 -1619,-86 -1619,-86l49 -58c0,0 1321,86 1619,86 100,0 164,-25 205,-58 28,-51 23,-100 23,-100 0,0 0,-3495 0,-3713 0,-218 -297,-174 -297,-174l-1526 157c20,47 20,108 20,108 0,0 0,3281 0,3444 0,94 -35,156 -65,192l-49 58c-21,26 -40,38 -40,38l48 -58z"/>
   </g>
   <path class="fil3" d="M15439 10157c0,0 106,-66 106,-229 0,-164 0,-3444 0,-3444 0,0 0,-139 -69,-157l1623 -168c0,0 298,-44 298,175 0,218 0,3713 0,3713 0,0 20,216 -278,216 -298,0 -1618,-86 -1618,-86"/>
   <g>
    <path class="fil2" d="M18750 10403l-49 59 -8 9 17 -20c28,-37 84,-123 84,-232 0,-145 0,-4088 0,-4088 0,0 -22,-214 -128,-242l49 -58 2020 -441c0,0 -62,127 -62,317 0,190 9,4595 9,4595 0,0 -2,291 58,333l-49 58 -1936 -225 49 -58 1853 215c-25,-99 -24,-265 -24,-265 0,0 -9,-4405 -9,-4595 0,-189 62,-317 62,-317l-1917 419c60,69 74,206 74,206 0,0 0,3942 0,4088 0,121 -69,214 -93,242z"/>
   </g>
   <path class="fil3" d="M18717 10441c0,0 102,-105 102,-251 0,-145 0,-4088 0,-4088 0,0 -23,-214 -128,-242l2020 -441c0,0 -62,128 -62,317 0,190 9,4595 9,4595 0,0 -2,291 57,333l-1936 -225"/>
   <path class="fil0" d="M13864 5066c-1,0 -1,0 -1,0 -47,-331 -95,-662 -141,-992 -46,-330 -94,-659 -140,-988 0,0 -18,-124 141,-259 -411,28 -822,41 -1232,44 158,126 141,249 141,249 -26,181 -53,361 -78,541 -25,181 -52,361 -77,542 97,-2 221,-26 361,-58 23,-172 47,-344 71,-515 24,-172 49,-345 74,-517 82,-2 164,-4 246,-6 23,167 48,333 71,498 23,165 48,331 72,497 -465,54 -900,239 -1057,127 0,82 53,149 131,193 -17,112 -34,225 -49,337 -15,111 -32,224 -47,336 0,0 0,0 0,0 0,0 -17,123 -211,245 234,3 469,5 703,4 -158,-122 -141,-246 -141,-246 15,-104 30,-208 45,-312 14,-104 29,-208 45,-313 230,-23 389,-96 616,-126 17,122 34,244 51,366 18,122 35,245 53,367 0,0 0,0 0,0 0,0 18,124 -141,254 235,-8 470,-17 704,-31 -193,-113 -210,-237 -210,-237z"/>
   <path class="fil0" d="M16916 4679c-47,-360 -95,-718 -141,-1075 -46,-355 -94,-710 -140,-1064 0,0 0,0 0,0 0,0 -18,-132 141,-317 -235,71 -470,139 -704,203 131,100 88,246 88,247 -74,240 -147,479 -220,716 -73,236 -147,471 -220,705 -74,-206 -148,-411 -221,-616 -73,-205 -147,-409 -220,-612 -1,-7 -39,-125 89,-276 -235,48 -470,89 -704,126 159,103 141,233 141,233 0,0 0,0 0,0 -47,348 -94,694 -141,1039 -46,345 -93,688 -140,1031 0,0 0,0 0,0 0,0 -18,128 -211,269 234,-18 468,-38 703,-59 -158,-114 -141,-243 -141,-243 0,0 0,0 0,0 36,-265 72,-531 108,-798 35,-267 72,-537 109,-806 74,208 150,417 225,628 75,211 151,424 227,637 117,-17 234,-36 351,-54 75,-241 151,-482 226,-725 75,-245 151,-494 227,-745 35,269 72,538 107,808 35,271 73,544 109,816 1,9 13,138 -141,296 235,-39 470,-82 704,-127 -193,-102 -211,-237 -211,-237z"/>
   <path class="fil0" d="M11680 4207c0,-119 -110,-211 -243,-249 81,53 141,126 152,213 37,6 67,18 91,36 0,0 0,0 0,0z"/>
   <path class="fil0" d="M10272 2934c0,0 0,-127 -175,-287 58,12 117,22 175,32 469,68 939,121 1408,160 0,0 0,0 0,0 59,4 117,8 176,11 -176,114 -176,238 -176,238 -1,0 -1,0 -1,0 0,0 0,0 0,0 0,166 0,332 1,497 -176,-9 -352,-23 -528,-39 176,-109 176,-234 176,-234 0,-83 0,-166 0,-249 -235,-24 -470,-47 -703,-79 0,150 0,299 0,449 0,150 0,300 0,450 -140,19 -257,43 -353,42 0,-165 0,-330 0,-495 0,-165 0,-330 0,-496zm1407 2143c0,0 0,0 0,0 0,0 0,0 0,0 0,-166 0,-332 1,-497 -176,-8 -352,-19 -528,-32 176,138 176,263 176,263 0,83 0,166 0,250 -235,-15 -470,-30 -703,-51 0,-129 0,-259 0,-388 0,-129 0,-259 0,-388 332,-21 730,-151 879,-35 0,0 0,0 0,-1 0,-150 -176,-261 -352,-276 -527,-52 -879,163 -1055,10 0,101 74,190 175,245 0,134 0,268 0,401 0,134 0,267 0,401 0,0 0,0 0,0 0,0 0,127 -175,238 58,6 117,12 175,17 0,0 0,0 0,0 468,39 938,69 1407,91 0,0 0,0 1,0 59,2 117,5 176,7 -176,-131 -176,-255 -176,-255 -1,0 -1,0 -1,0z"/>
   <path class="fil0" d="M11152 3922c0,0 0,0 0,0 0,0 0,0 0,0 0,0 0,0 0,0z"/>
   <path class="fil0" d="M9658 2826c0,0 0,0 0,0 0,0 0,-130 176,-228 -59,-11 -118,-22 -176,-33 -586,-133 -1173,-288 -1759,-465 -58,-18 -117,-37 -175,-55 175,196 175,336 175,336 0,0 0,0 0,0 0,0 0,0 0,0 0,188 0,375 0,562 175,48 352,95 528,141 -176,-184 -176,-321 -176,-321 0,-93 0,-185 0,-277 116,35 234,65 352,95 0,363 0,726 0,1088 0,362 0,725 0,1088 0,0 0,136 -176,245 234,35 468,70 703,102 -175,-157 -175,-291 -175,-291 0,-356 0,-713 0,-1070 0,-357 0,-714 0,-1071 117,27 233,52 351,78 0,88 0,177 0,265 0,0 0,131 -175,228 175,35 352,70 528,104 -1,-174 -1,-347 -1,-521 0,0 0,0 0,0z"/>
   <g>
    <path class="fil2" d="M8089 2905c0,0 -53,-71 -53,-181 0,-110 0,-417 0,-417l49 -58c0,0 933,284 1436,395l0 392c0,0 6,78 -35,127l-1 1 -48 58c-13,15 -30,27 -53,33l49 -58c9,-2 17,-6 24,-10 19,-44 15,-93 15,-93l0 -392c-434,-95 -1188,-320 -1387,-380l0 344c0,110 53,180 53,180l-49 59z"/>
   </g>
   <path class="fil3" d="M8114 2876c0,0 -53,-71 -53,-181 0,-110 0,-417 0,-417 0,0 933,285 1435,395l0 392c0,0 11,135 -88,161"/>
   <g>
    <polygon class="fil2" points="8800,2457 8800,4859 8751,4918 8751,2516 "/>
   </g>
   <line class="fil3" x1="8776" y1="2487" x2="8776" y2= "4889" />
   <g>
    <path class="fil2" d="M11417 3451c0,0 23,-9 47,-26 5,-12 8,-24 8,-37 0,-84 0,-404 0,-404 0,0 -747,-67 -1021,-118l0 911 -49 58 0 -979 49 -58c217,51 1070,128 1070,128 0,0 0,320 0,403 0,28 -12,50 -27,68l-48 58 -1 0c-30,37 -77,54 -77,54l49 -58zm-131 644c0,0 -83,-50 -341,-24 -182,19 -350,57 -486,56l0 843c0,0 1,97 -26,131l-3 2c5,-1 76,-22 253,-15 152,5 639,52 795,68l0 -400c0,0 -2,-76 -56,-76l49 -59c54,0 56,77 56,77l0 463 -49 58c0,0 -661,-66 -844,-73 -183,-7 -253,16 -253,16l5 -6c25,-36 24,-128 24,-128l0 -904 0 0c-38,-3 -73,-11 -105,-24l49 -59c150,64 382,-2 640,-28 258,-27 341,24 341,24l-49 58z"/>
   </g>
   <path class="fil3" d="M11392 3480c0,0 104,-38 104,-121 0,-84 0,-404 0,-404 0,0 -852,-77 -1069,-128l0 979m7 289l0 904c0,0 2,103 -28,133 0,0 69,-22 252,-15 183,7 845,73 845,73l0 -463c0,0 -3,-76 -57,-76m-135 -585c0,0 -84,-50 -342,-24 -258,26 -489,93 -639,29"/>
   <g>
    <path class="fil2" d="M12491 5183l-48 57 -1 2 -26 25 48 -56c14,-24 27,-54 32,-89 10,-87 82,-686 88,-729 -68,-6 -116,-19 -116,-19l49 -58c0,0 47,13 114,18l2 -2 0 2c48,4 107,3 165,-9 129,-28 480,-120 727,-139 -69,-532 -141,-1091 -141,-1091 0,0 -13,-85 8,-110l1 -1c-1,0 -235,35 -559,40l-133 1011 -49 58 141 -1069 49 -58c346,-3 600,-40 600,-40l-1 1c-21,26 -8,109 -8,109 0,0 247,1927 265,2026 17,100 79,135 79,135l-49 58c0,0 -62,-35 -79,-134 -8,-44 -61,-449 -118,-885l-4 5c-247,9 -640,113 -778,142 -42,9 -85,12 -124,11 -19,164 -71,597 -80,670 -7,53 -34,95 -54,119z"/>
   </g>
   <path class="fil3" d="M12441 5238c0,0 68,-55 79,-145 11,-91 88,-732 88,-732m1144 865c0,0 -61,-35 -79,-134 -18,-100 -264,-2027 -264,-2027 0,0 -14,-86 8,-110 0,0 -253,38 -599,40l-141 1069m-185 281c0,0 144,39 282,9 137,-30 531,-133 778,-142"/>
   <g>
    <path class="fil2" d="M14619 5139c0,0 8,-7 19,-18 16,-24 30,-53 31,-81 5,-77 320,-2237 320,-2237l49 -59 687 1614 642 -1866 49 -59 340 2289c0,0 17,119 59,141l-49 58c-42,-22 -59,-141 -59,-141l-331 -2230 -635 1846 -49 58 -673 -1581c-68,467 -297,2043 -301,2109 -2,40 -28,80 -53,110l-48 57 -1 2c-24,27 -46,46 -46,46l49 -58z"/>
   </g>
   <path class="fil3" d="M14595 5168c0,0 94,-80 99,-157 4,-77 320,-2238 320,-2238l703 1652 675 -1962 339 2288c0,0 18,119 60,141"/>
   <path class="fil3 str0" d="M1133 11973c0,0 4330,-1261 11182,-1268m658 3c3334,36 7226,373 11483,1283"/>
   <path class="fil3 str0" d="M42 3172c1217,544 6100,2394 12242,2573m726 13c3810,26 8055,-614 12185,-2604"/>
   <rect class="fil1" transform="matrix(0.358387 0.358387 -0.358387 0.358387 12644 5566.59)" width="522" height="522"/>
   <rect class="fil1" transform="matrix(0.299335 0.299335 -0.299335 0.299335 12644 10546.8)" width="522" height="522"/>
   <path class="fil3 str1" d="M14264 16032l-1843 1843 -2813 -2813m810 -12975l2003 -2002 2078 2078"/>
   <rect class="fil1" transform="matrix(0.707107 0.707107 -0.707107 0.707107 12421 84.6641)" width="794" height="794"/>
   <rect class="fil1" transform="matrix(0.707107 0.707107 -0.707107 0.707107 12421 16752.6)" width="794" height="794"/>
   <rect class="fil4" transform="matrix(0.422586 0.422586 -0.422586 0.422586 12421 16978.4)" width="794" height="794"/>
   <rect class="fil4" transform="matrix(0.422586 0.422586 -0.422586 0.422586 12421 310.503)" width="794" height="794"/>
   <line class="fil3 str2" x1="12421" y1="1845" x2="12421" y2= "1363" />
   <line class="fil3 str2" x1="12704" y1="1809" x2="12585" y2= "1343" />
   <line class="fil3 str2" x1="12970" y1="1704" x2="12738" y2= "1282" />
   <line class="fil3 str2" x1="13201" y1="1536" x2="12871" y2= "1185" />
   <line class="fil3 str2" x1="11641" y1="1536" x2="11971" y2= "1185" />
   <line class="fil3 str2" x1="11872" y1="1704" x2="12104" y2= "1282" />
   <line class="fil3 str2" x1="12138" y1="1809" x2="12257" y2= "1343" />
   <line class="fil3 str2" x1="12421" y1="16115" x2="12421" y2= "16597" />
   <line class="fil3 str2" x1="12704" y1="16151" x2="12585" y2= "16617" />
   <line class="fil3 str2" x1="12970" y1="16256" x2="12738" y2= "16678" />
   <line class="fil3 str2" x1="13201" y1="16424" x2="12871" y2= "16775" />
   <line class="fil3 str2" x1="11641" y1="16424" x2="11971" y2= "16775" />
   <line class="fil3 str2" x1="11872" y1="16256" x2="12104" y2= "16678" />
   <line class="fil3 str2" x1="12138" y1="16151" x2="12257" y2= "16617" />
   <g>
    <path class="fil2" d="M22451 9453l49 -58 0 0 1 -1 -2 2c-13,17 -99,131 -99,351 0,238 0,785 0,785 0,0 22,185 -51,271l-1 1 -24 29 1637 267c0,0 104,16 189,-58 34,-54 57,-134 57,-249 0,-410 0,-2946 0,-2946 0,0 13,-518 -284,-377 -298,141 -937,419 -1262,448 0,0 -257,22 -257,-274 0,-295 0,-2332 0,-2332 0,0 -12,-152 101,-286l49 -59c41,-49 99,-96 181,-133 304,-136 1552,-472 1552,-472l44 1310c0,0 10,258 -101,389l-1 1 -48 58c-20,23 -43,43 -71,56l49 -59c17,-7 32,-17 45,-29 86,-138 78,-358 78,-358l-44 -1309c0,0 -1248,335 -1552,472 -66,29 -117,65 -155,104 -89,126 -79,256 -79,256 0,0 0,2037 0,2333 0,295 258,273 258,273 325,-28 964,-306 1262,-447 297,-141 284,377 284,377 0,0 0,2535 0,2945 0,140 -34,227 -80,281l-49 59c-87,104 -215,85 -215,85l-1645 -269 49 -59c2,-1 4,-2 5,-3 47,-94 30,-238 30,-238 0,0 0,-547 0,-785 0,-226 91,-341 100,-352z"/>
   </g>
   <path class="fil3" d="M22476 9423c0,0 -101,115 -101,353 0,238 0,785 0,785 0,0 28,235 -84,300l1645 269c0,0 296,44 296,-366 0,-411 0,-2946 0,-2946 0,0 13,-518 -285,-377 -298,141 -937,419 -1261,447 0,0 -258,22 -258,-273 0,-295 0,-2333 0,-2333 0,0 -22,-282 282,-419 304,-136 1552,-471 1552,-471l44 1309c0,0 14,357 -171,446"/>
   <path class="fil0" d="M5912 13641c0,0 0,0 0,0 0,0 0,0 0,0 0,-143 0,-286 0,-429 -119,42 -238,94 -355,147 117,55 117,164 117,164 0,72 0,144 0,216 -158,73 -315,145 -473,217 0,-290 0,-581 0,-872 0,-291 0,-582 0,-873 0,0 0,-109 119,-269 -159,67 -316,134 -473,201 117,59 117,169 117,169 0,293 0,585 0,877 0,292 0,585 0,877 0,0 0,110 -117,273 394,-183 789,-366 1183,-522 -118,-68 -118,-176 -118,-176z"/>
   <path class="fil0" d="M9005 11441c0,-3 -3,-107 -119,-216 395,16 789,50 1184,89 -119,94 -119,201 -119,201 0,141 0,283 0,425 -119,-13 -237,-25 -355,-37 119,-94 119,-200 119,-200 0,-71 0,-141 0,-212 -159,-15 -317,-30 -475,-40 0,129 0,259 0,388 0,129 0,258 0,387 -90,21 -171,39 -235,41 0,-138 0,-275 0,-413 0,-137 0,-275 0,-413zm946 1776c0,0 0,0 0,0 1,14 9,113 119,224 -395,-48 -789,-79 -1184,-93 108,-94 117,-191 117,-205 0,-1 0,-2 0,-3 0,-111 0,-222 0,-333 0,-110 0,-222 0,-333 -68,-37 -117,-104 -117,-188 119,112 473,-87 829,-53 131,14 236,120 236,238 0,124 0,248 0,372 0,124 0,248 0,371 0,1 0,2 0,3zm-236 -31c0,0 0,0 0,0 0,-106 0,-212 0,-317 0,0 0,0 0,0 0,-142 0,-283 0,-424 -194,-21 -310,40 -475,58 0,108 0,216 0,323 0,108 0,216 0,323 158,6 316,18 475,37z"/>
   <path class="fil0" d="M8607 11429c0,0 0,-106 119,-210 -159,0 -318,6 -475,11 119,102 119,209 119,209 0,163 0,325 0,488 0,162 0,325 0,488 -80,-126 -159,-252 -238,-379 -78,-127 -157,-254 -235,-376 0,-65 0,-130 0,-195 0,0 0,-107 117,-226 -159,18 -316,38 -473,59 118,90 118,197 118,197 0,284 0,567 0,851 0,283 0,567 0,850 0,0 0,107 -118,235 157,-30 314,-42 473,-53 -117,-98 -117,-205 -117,-205 0,-181 0,-361 0,-542 0,-181 0,-362 0,-543 78,122 157,249 235,375 79,126 158,252 238,377 0,101 0,201 0,302 0,0 0,106 -119,220 157,-10 316,-21 475,-20 -119,-110 -119,-216 -119,-216 0,-283 0,-565 0,-848 0,-283 0,-566 0,-849z"/>
   <path class="fil0" d="M6191 11617c118,68 118,176 118,176 0,287 0,574 0,860 0,287 0,573 0,860 0,0 0,107 -118,253 394,-128 789,-229 1183,-304 -117,-85 -117,-192 -117,-192 0,-287 0,-573 0,-859 0,-286 0,-573 0,-860 0,0 0,-107 117,-232 -394,81 -789,172 -1183,298zm829 -12c0,0 0,0 0,0 0,285 0,570 0,855 0,286 0,571 0,856 -159,30 -316,71 -473,120 0,-287 0,-573 0,-860 0,-287 0,-573 0,-860 157,-38 314,-75 473,-111z"/>
   <path class="fil0" d="M11310 12237c0,-182 0,-364 0,-545 0,-121 -106,-233 -237,-250 -278,-37 -553,-72 -829,-106 118,121 118,228 118,228 0,120 0,239 0,359 0,120 0,240 0,360 65,6 147,-3 238,-14 0,-112 0,-225 0,-337 0,-112 0,-225 0,-337 157,21 314,42 473,64 0,108 0,217 0,325 0,107 0,216 0,324 -355,-54 -711,106 -829,-15 0,83 51,155 118,198 0,130 0,258 0,387 0,129 0,258 0,387 0,0 0,106 -118,197 276,44 551,94 829,145 131,24 237,-50 237,-171 0,-145 0,-291 0,-436 0,-145 0,-291 0,-436 0,-66 -31,-129 -80,-177 49,-32 80,-85 80,-150zm-237 1153c0,0 0,0 0,0 -159,-28 -316,-56 -473,-83 0,-127 0,-253 0,-379 0,-127 0,-253 0,-380 165,0 279,-54 473,-23 0,144 0,289 0,433 0,144 0,288 0,432z"/>
   <path class="fil0" d="M11464 11493c119,127 119,237 119,237 0,294 0,588 0,882 0,294 0,588 0,882 0,0 0,110 -119,194 395,87 789,176 1185,268 -118,-143 -118,-258 -118,-258 0,-308 0,-616 0,-924 0,-308 0,-616 0,-924 0,0 0,-116 118,-221 -396,-41 -790,-87 -1185,-136zm829 328c0,0 0,0 0,0 0,305 0,608 0,913 0,304 0,607 0,912 -158,-36 -316,-69 -473,-102 0,-298 0,-595 0,-892 0,-297 0,-594 0,-892 157,21 315,41 473,61z"/>
   <path class="fil0" d="M13981 14000c0,0 0,0 0,0 -33,-342 -65,-682 -96,-1021 -30,-338 -63,-675 -94,-1011 0,0 -11,-125 96,-244 -278,-15 -553,-32 -829,-57 106,129 94,248 94,248 -19,173 -36,346 -53,519 -17,172 -34,344 -51,516 65,7 148,-4 242,-17 16,-165 33,-330 48,-495 16,-166 34,-332 51,-499 56,4 111,8 166,12 16,167 31,334 47,501 15,167 32,335 49,503 -314,-3 -607,127 -712,4 0,78 36,148 88,199 -11,106 -22,212 -32,318 -11,105 -22,211 -33,316 0,0 0,0 0,0 0,0 -11,116 -142,204 158,37 316,72 475,107 -108,-144 -96,-261 -96,-261 10,-99 21,-198 30,-297 9,-100 20,-199 31,-298 154,7 262,-45 414,-43 11,125 23,250 34,374 11,125 25,251 37,376 0,0 0,0 0,0 0,0 11,127 -96,228 158,34 316,68 475,97 -131,-150 -143,-279 -143,-279z"/>
   <path class="fil0" d="M15466 14498c-158,-21 -316,-42 -473,-64 119,-117 119,-251 119,-251 0,0 0,0 0,0 0,-180 0,-359 0,-538 0,-179 0,-358 0,-537 -194,-15 -310,64 -475,78 0,155 0,310 0,464 0,155 0,310 0,464 0,0 0,131 119,284 -159,-30 -316,-59 -473,-89 117,-106 117,-236 117,-236 0,0 0,0 2,1 0,-157 0,-313 0,-469 0,-157 0,-313 0,-469 -70,-52 -119,-136 -119,-236 119,142 473,-85 829,-61 0,-135 0,-269 0,-403 0,-135 0,-269 0,-403 -159,-5 -317,-9 -475,-14 0,138 0,276 0,413 0,137 0,275 0,412 -91,23 -171,41 -235,39 0,-145 0,-291 0,-437 0,-145 0,-290 0,-436 0,0 0,-129 -119,-264 276,10 552,14 829,18 129,1 236,124 236,274 0,227 0,453 0,679 0,82 -31,152 -80,199 49,53 80,128 80,209 0,181 0,362 0,543 0,181 0,362 0,543 0,0 0,136 118,287z"/>
   <path class="fil0" d="M16476 11747c-278,8 -553,16 -829,24 118,135 118,274 118,274 0,370 0,739 0,1109 0,369 0,739 0,1108 0,0 0,138 -118,261 276,30 551,48 829,66 131,9 236,-112 236,-271 0,-382 0,-764 0,-1146 0,-381 0,-763 0,-1146 0,-158 -105,-283 -236,-279zm0 2558c0,0 0,0 0,0 -159,-9 -318,-17 -475,-27 0,-372 0,-745 0,-1118 0,-373 0,-746 0,-1119 157,-4 316,-7 475,-10 0,379 0,758 0,1137 0,379 0,758 0,1137z"/>
   <path class="fil0" d="M17291 14317c0,-386 0,-772 0,-1158 0,-386 0,-772 0,-1158 0,0 0,0 0,0 0,0 0,-145 119,-298 -159,11 -316,22 -473,30 118,139 118,284 118,284 0,384 0,768 0,1153 0,384 0,768 0,1153 0,0 0,144 -118,290 157,-3 314,-6 473,-8 -119,-143 -119,-288 -119,-288 0,0 0,0 0,0z"/>
   <path class="fil0" d="M18664 11899c0,0 0,-146 119,-304 -159,18 -318,32 -475,44 119,137 119,282 119,282 0,223 0,446 0,668 0,222 0,445 0,667 -80,-171 -159,-342 -238,-513 -78,-172 -157,-345 -235,-518 0,-89 0,-179 0,-268 0,0 0,-147 118,-301 -158,11 -317,22 -474,33 118,138 118,284 118,284 0,389 0,779 0,1168 0,389 0,778 0,1167 0,0 0,146 -118,294 157,-3 316,-5 474,-21 -118,-134 -118,-281 -118,-281 0,-248 0,-496 0,-744 0,-248 0,-496 0,-745 78,172 157,344 235,516 79,171 158,342 238,512 0,138 0,275 0,413 0,0 0,145 -119,303 157,-17 316,-34 475,-51 -119,-132 -119,-278 -119,-278 0,-387 0,-775 0,-1163 0,-388 0,-776 0,-1164z"/>
   <g>
   </g>
   <g style="clip-path:url(#id0)">
    <g id="_1008615965504">
     <g>
      <line class="fil3 str3" x1="-20944" y1="7365" x2="38760" y2= "-8633" />
      <line class="fil3 str3" x1="-20944" y1="7484" x2="38760" y2= "-8514" />
      <line class="fil3 str3" x1="-20944" y1="7603" x2="38760" y2= "-8395" />
      <line class="fil3 str3" x1="-20944" y1="7722" x2="38760" y2= "-8275" />
      <line class="fil3 str3" x1="-20944" y1="7841" x2="38760" y2= "-8156" />
      <line class="fil3 str3" x1="-20944" y1="7960" x2="38760" y2= "-8037" />
      <line class="fil3 str3" x1="-20944" y1="8079" x2="38760" y2= "-7918" />
      <line class="fil3 str3" x1="-20944" y1="8198" x2="38760" y2= "-7799" />
      <line class="fil3 str3" x1="-20944" y1="8317" x2="38760" y2= "-7680" />
      <line class="fil3 str3" x1="-20944" y1="8436" x2="38760" y2= "-7561" />
      <line class="fil3 str3" x1="-20944" y1="8555" x2="38760" y2= "-7442" />
      <line class="fil3 str3" x1="-20944" y1="8675" x2="38760" y2= "-7323" />
      <line class="fil3 str3" x1="-20944" y1="8794" x2="38760" y2= "-7204" />
      <line class="fil3 str3" x1="-20944" y1="8913" x2="38760" y2= "-7085" />
      <line class="fil3 str3" x1="-20944" y1="9032" x2="38760" y2= "-6966" />
      <line class="fil3 str3" x1="-20944" y1="9151" x2="38760" y2= "-6847" />
      <line class="fil3 str3" x1="-20944" y1="9270" x2="38760" y2= "-6728" />
      <line class="fil3 str3" x1="-20944" y1="9389" x2="38760" y2= "-6608" />
      <line class="fil3 str3" x1="-20944" y1="9508" x2="38760" y2= "-6489" />
      <line class="fil3 str3" x1="-20944" y1="9627" x2="38760" y2= "-6370" />
      <line class="fil3 str3" x1="-20944" y1="9746" x2="38760" y2= "-6251" />
      <line class="fil3 str3" x1="-20944" y1="9865" x2="38760" y2= "-6132" />
      <line class="fil3 str3" x1="-20944" y1="9984" x2="38760" y2= "-6013" />
      <line class="fil3 str3" x1="-20944" y1="10103" x2="38760" y2= "-5894" />
      <line class="fil3 str3" x1="-20944" y1="10222" x2="38760" y2= "-5775" />
      <line class="fil3 str3" x1="-20944" y1="10342" x2="38760" y2= "-5656" />
      <line class="fil3 str3" x1="-20944" y1="10461" x2="38760" y2= "-5537" />
      <line class="fil3 str3" x1="-20944" y1="10580" x2="38760" y2= "-5418" />
      <line class="fil3 str3" x1="-20944" y1="10699" x2="38760" y2= "-5299" />
      <line class="fil3 str3" x1="-20944" y1="10818" x2="38760" y2= "-5180" />
      <line class="fil3 str3" x1="-20944" y1="10937" x2="38760" y2= "-5061" />
      <line class="fil3 str3" x1="-20944" y1="11056" x2="38760" y2= "-4941" />
      <line class="fil3 str3" x1="-20944" y1="11175" x2="38760" y2= "-4822" />
      <line class="fil3 str3" x1="-20944" y1="11294" x2="38760" y2= "-4703" />
      <line class="fil3 str3" x1="-20944" y1="11413" x2="38760" y2= "-4584" />
      <line class="fil3 str3" x1="-20944" y1="11532" x2="38760" y2= "-4465" />
      <line class="fil3 str3" x1="-20944" y1="11651" x2="38760" y2= "-4346" />
      <line class="fil3 str3" x1="-20944" y1="11770" x2="38760" y2= "-4227" />
      <line class="fil3 str3" x1="-20944" y1="11889" x2="38760" y2= "-4108" />
      <line class="fil3 str3" x1="-20944" y1="12009" x2="38760" y2= "-3989" />
      <line class="fil3 str3" x1="-20944" y1="12128" x2="38760" y2= "-3870" />
      <line class="fil3 str3" x1="-20944" y1="12247" x2="38760" y2= "-3751" />
      <line class="fil3 str3" x1="-20944" y1="12366" x2="38760" y2= "-3632" />
      <line class="fil3 str3" x1="-20944" y1="12485" x2="38760" y2= "-3513" />
      <line class="fil3 str3" x1="-20944" y1="12604" x2="38760" y2= "-3394" />
      <line class="fil3 str3" x1="-20944" y1="12723" x2="38760" y2= "-3274" />
      <line class="fil3 str3" x1="-20944" y1="12842" x2="38760" y2= "-3155" />
      <line class="fil3 str3" x1="-20944" y1="12961" x2="38760" y2= "-3036" />
      <line class="fil3 str3" x1="-20944" y1="13080" x2="38760" y2= "-2917" />
      <line class="fil3 str3" x1="-20944" y1="13199" x2="38760" y2= "-2798" />
      <line class="fil3 str3" x1="-20944" y1="13318" x2="38760" y2= "-2679" />
      <line class="fil3 str3" x1="-20944" y1="13437" x2="38760" y2= "-2560" />
      <line class="fil3 str3" x1="-20944" y1="13556" x2="38760" y2= "-2441" />
      <line class="fil3 str3" x1="-20944" y1="13676" x2="38760" y2= "-2322" />
      <line class="fil3 str3" x1="-20944" y1="13795" x2="38760" y2= "-2203" />
      <line class="fil3 str3" x1="-20944" y1="13914" x2="38760" y2= "-2084" />
      <line class="fil3 str3" x1="-20944" y1="14033" x2="38760" y2= "-1965" />
      <line class="fil3 str3" x1="-20944" y1="14152" x2="38760" y2= "-1846" />
      <line class="fil3 str3" x1="-20944" y1="14271" x2="38760" y2= "-1727" />
      <line class="fil3 str3" x1="-20944" y1="14390" x2="38760" y2= "-1608" />
      <line class="fil3 str3" x1="-20944" y1="14509" x2="38760" y2= "-1488" />
      <line class="fil3 str3" x1="-20944" y1="14628" x2="38760" y2= "-1369" />
      <line class="fil3 str3" x1="-20944" y1="14747" x2="38760" y2= "-1250" />
      <line class="fil3 str3" x1="-20944" y1="14866" x2="38760" y2= "-1131" />
      <line class="fil3 str3" x1="-20944" y1="14985" x2="38760" y2= "-1012" />
      <line class="fil3 str3" x1="-20944" y1="15104" x2="38760" y2= "-893" />
      <line class="fil3 str3" x1="-20944" y1="15223" x2="38760" y2= "-774" />
      <line class="fil3 str3" x1="-20944" y1="15342" x2="38760" y2= "-655" />
      <line class="fil3 str3" x1="-20944" y1="15462" x2="38760" y2= "-536" />
      <line class="fil3 str3" x1="-20944" y1="15581" x2="38760" y2= "-417" />
      <line class="fil3 str3" x1="-20944" y1="15700" x2="38760" y2= "-298" />
      <line class="fil3 str3" x1="-20944" y1="15819" x2="38760" y2= "-179" />
      <line class="fil3 str3" x1="-20944" y1="15938" x2="38760" y2= "-60" />
      <line class="fil3 str3" x1="-20944" y1="16057" x2="38760" y2= "59" />
      <line class="fil3 str3" x1="-20944" y1="16176" x2="38760" y2= "179" />
      <line class="fil3 str3" x1="-20944" y1="16295" x2="38760" y2= "298" />
      <line class="fil3 str3" x1="-20944" y1="16414" x2="38760" y2= "417" />
      <line class="fil3 str3" x1="-20944" y1="16533" x2="38760" y2= "536" />
      <line class="fil3 str3" x1="-20944" y1="16652" x2="38760" y2= "655" />
      <line class="fil3 str3" x1="-20944" y1="16771" x2="38760" y2= "774" />
      <line class="fil3 str3" x1="-20944" y1="16890" x2="38760" y2= "893" />
      <line class="fil3 str3" x1="-20944" y1="17009" x2="38760" y2= "1012" />
      <line class="fil3 str3" x1="-20944" y1="17129" x2="38760" y2= "1131" />
      <line class="fil3 str3" x1="-20944" y1="17248" x2="38760" y2= "1250" />
      <line class="fil3 str3" x1="-20944" y1="17367" x2="38760" y2= "1369" />
      <line class="fil3 str3" x1="-20944" y1="17486" x2="38760" y2= "1488" />
      <line class="fil3 str3" x1="-20944" y1="17605" x2="38760" y2= "1607" />
      <line class="fil3 str3" x1="-20944" y1="17724" x2="38760" y2= "1726" />
      <line class="fil3 str3" x1="-20944" y1="17843" x2="38760" y2= "1846" />
      <line class="fil3 str3" x1="-20944" y1="17962" x2="38760" y2= "1965" />
      <line class="fil3 str3" x1="-20944" y1="18081" x2="38760" y2= "2084" />
      <line class="fil3 str3" x1="-20944" y1="18200" x2="38760" y2= "2203" />
      <line class="fil3 str3" x1="-20944" y1="18319" x2="38760" y2= "2322" />
      <line class="fil3 str3" x1="-20944" y1="18438" x2="38760" y2= "2441" />
      <line class="fil3 str3" x1="-20944" y1="18557" x2="38760" y2= "2560" />
      <line class="fil3 str3" x1="-20944" y1="18676" x2="38760" y2= "2679" />
      <line class="fil3 str3" x1="-20944" y1="18796" x2="38760" y2= "2798" />
      <line class="fil3 str3" x1="-20944" y1="18915" x2="38760" y2= "2917" />
      <line class="fil3 str3" x1="-20944" y1="19034" x2="38760" y2= "3036" />
      <line class="fil3 str3" x1="-20944" y1="19153" x2="38760" y2= "3155" />
      <line class="fil3 str3" x1="-20944" y1="19272" x2="38760" y2= "3274" />
      <line class="fil3 str3" x1="-20944" y1="19391" x2="38760" y2= "3393" />
      <line class="fil3 str3" x1="-20944" y1="19510" x2="38760" y2= "3513" />
      <line class="fil3 str3" x1="-20944" y1="19629" x2="38760" y2= "3632" />
      <line class="fil3 str3" x1="-20944" y1="19748" x2="38760" y2= "3751" />
      <line class="fil3 str3" x1="-20944" y1="19867" x2="38760" y2= "3870" />
      <line class="fil3 str3" x1="-20944" y1="19986" x2="38760" y2= "3989" />
      <line class="fil3 str3" x1="-20944" y1="20105" x2="38760" y2= "4108" />
      <line class="fil3 str3" x1="-20944" y1="20224" x2="38760" y2= "4227" />
      <line class="fil3 str3" x1="-20944" y1="20343" x2="38760" y2= "4346" />
      <line class="fil3 str3" x1="-20944" y1="20463" x2="38760" y2= "4465" />
      <line class="fil3 str3" x1="-20944" y1="20582" x2="38760" y2= "4584" />
      <line class="fil3 str3" x1="-20944" y1="20701" x2="38760" y2= "4703" />
      <line class="fil3 str3" x1="-20944" y1="20820" x2="38760" y2= "4822" />
      <line class="fil3 str3" x1="-20944" y1="20939" x2="38760" y2= "4941" />
      <line class="fil3 str3" x1="-20944" y1="21058" x2="38760" y2= "5060" />
      <line class="fil3 str3" x1="-20944" y1="21177" x2="38760" y2= "5179" />
      <line class="fil3 str3" x1="-20944" y1="21296" x2="38760" y2= "5299" />
      <line class="fil3 str3" x1="-20944" y1="21415" x2="38760" y2= "5418" />
      <line class="fil3 str3" x1="-20944" y1="21534" x2="38760" y2= "5537" />
      <line class="fil3 str3" x1="-20944" y1="21653" x2="38760" y2= "5656" />
      <line class="fil3 str3" x1="-20944" y1="21772" x2="38760" y2= "5775" />
      <line class="fil3 str3" x1="-20944" y1="21891" x2="38760" y2= "5894" />
      <line class="fil3 str3" x1="-20944" y1="22010" x2="38760" y2= "6013" />
      <line class="fil3 str3" x1="-20944" y1="22129" x2="38760" y2= "6132" />
      <line class="fil3 str3" x1="-20944" y1="22249" x2="38760" y2= "6251" />
      <line class="fil3 str3" x1="-20944" y1="22368" x2="38760" y2= "6370" />
      <line class="fil3 str3" x1="-20944" y1="22487" x2="38760" y2= "6489" />
      <line class="fil3 str3" x1="-20944" y1="22606" x2="38760" y2= "6608" />
      <line class="fil3 str3" x1="-20944" y1="22725" x2="38760" y2= "6727" />
      <line class="fil3 str3" x1="-20944" y1="22844" x2="38760" y2= "6846" />
      <line class="fil3 str3" x1="-20944" y1="22963" x2="38760" y2= "6966" />
      <line class="fil3 str3" x1="-20944" y1="23082" x2="38760" y2= "7085" />
      <line class="fil3 str3" x1="-20944" y1="23201" x2="38760" y2= "7204" />
      <line class="fil3 str3" x1="-20944" y1="23320" x2="38760" y2= "7323" />
      <line class="fil3 str3" x1="-20944" y1="23439" x2="38760" y2= "7442" />
      <line class="fil3 str3" x1="-20944" y1="23558" x2="38760" y2= "7561" />
      <line class="fil3 str3" x1="-20944" y1="23677" x2="38760" y2= "7680" />
      <line class="fil3 str3" x1="-20944" y1="23796" x2="38760" y2= "7799" />
      <line class="fil3 str3" x1="-20944" y1="23916" x2="38760" y2= "7918" />
      <line class="fil3 str3" x1="-20944" y1="24035" x2="38760" y2= "8037" />
      <line class="fil3 str3" x1="-20944" y1="24154" x2="38760" y2= "8156" />
      <line class="fil3 str3" x1="-20944" y1="24273" x2="38760" y2= "8275" />
      <line class="fil3 str3" x1="-20944" y1="24392" x2="38760" y2= "8394" />
      <line class="fil3 str3" x1="-20944" y1="24511" x2="38760" y2= "8513" />
      <line class="fil3 str3" x1="-20944" y1="24630" x2="38760" y2= "8633" />
      <line class="fil3 str3" x1="-20944" y1="24749" x2="38760" y2= "8752" />
      <line class="fil3 str3" x1="-20944" y1="24868" x2="38760" y2= "8871" />
      <line class="fil3 str3" x1="-20944" y1="24987" x2="38760" y2= "8990" />
      <line class="fil3 str3" x1="-20944" y1="25106" x2="38760" y2= "9109" />
      <line class="fil3 str3" x1="-20944" y1="25225" x2="38760" y2= "9228" />
      <line class="fil3 str3" x1="-20944" y1="25344" x2="38760" y2= "9347" />
      <line class="fil3 str3" x1="-20944" y1="25463" x2="38760" y2= "9466" />
      <line class="fil3 str3" x1="-20944" y1="25583" x2="38760" y2= "9585" />
      <line class="fil3 str3" x1="-20944" y1="25702" x2="38760" y2= "9704" />
      <line class="fil3 str3" x1="-20944" y1="25821" x2="38760" y2= "9823" />
      <line class="fil3 str3" x1="-20944" y1="25940" x2="38760" y2= "9942" />
      <line class="fil3 str3" x1="-20944" y1="26059" x2="38760" y2= "10061" />
      <line class="fil3 str3" x1="-20944" y1="26178" x2="38760" y2= "10180" />
      <line class="fil3 str3" x1="-20944" y1="26297" x2="38760" y2= "10299" />
      <line class="fil3 str3" x1="-20944" y1="26416" x2="38760" y2= "10419" />
      <line class="fil3 str3" x1="-20944" y1="26535" x2="38760" y2= "10538" />
      <line class="fil3 str3" x1="-20944" y1="26654" x2="38760" y2= "10657" />
      <line class="fil3 str3" x1="-20944" y1="26773" x2="38760" y2= "10776" />
      <line class="fil3 str3" x1="-20944" y1="26892" x2="38760" y2= "10895" />
      <line class="fil3 str3" x1="-20944" y1="27011" x2="38760" y2= "11014" />
      <line class="fil3 str3" x1="-20944" y1="27130" x2="38760" y2= "11133" />
      <line class="fil3 str3" x1="-20944" y1="27250" x2="38760" y2= "11252" />
      <line class="fil3 str3" x1="-20944" y1="27369" x2="38760" y2= "11371" />
      <line class="fil3 str3" x1="-20944" y1="27488" x2="38760" y2= "11490" />
      <line class="fil3 str3" x1="-20944" y1="27607" x2="38760" y2= "11609" />
      <line class="fil3 str3" x1="-20944" y1="27726" x2="38760" y2= "11728" />
      <line class="fil3 str3" x1="-20944" y1="27845" x2="38760" y2= "11847" />
      <line class="fil3 str3" x1="-20944" y1="27964" x2="38760" y2= "11966" />
      <line class="fil3 str3" x1="-20944" y1="28083" x2="38760" y2= "12086" />
      <line class="fil3 str3" x1="-20944" y1="28202" x2="38760" y2= "12205" />
      <line class="fil3 str3" x1="-20944" y1="28321" x2="38760" y2= "12324" />
      <line class="fil3 str3" x1="-20944" y1="28440" x2="38760" y2= "12443" />
      <line class="fil3 str3" x1="-20944" y1="28559" x2="38760" y2= "12562" />
      <line class="fil3 str3" x1="-20944" y1="28678" x2="38760" y2= "12681" />
      <line class="fil3 str3" x1="-20944" y1="28797" x2="38760" y2= "12800" />
      <line class="fil3 str3" x1="-20944" y1="28916" x2="38760" y2= "12919" />
      <line class="fil3 str3" x1="-20944" y1="29036" x2="38760" y2= "13038" />
      <line class="fil3 str3" x1="-20944" y1="29155" x2="38760" y2= "13157" />
      <line class="fil3 str3" x1="-20944" y1="29274" x2="38760" y2= "13276" />
     </g>
    </g>
   </g>
   <path class="fil5" d="M12564 8900c-52,8 -105,14 -160,22 -50,316 -97,632 -145,948 0,6 -15,166 210,326 30,23 63,47 95,69 33,0 65,2 100,2 -280,-204 -247,-409 -247,-409 47,-320 97,-639 147,-958zm397 -4390c-29,6 -58,11 -90,16 -28,193 -55,385 -81,578 0,3 -10,100 118,198 18,13 35,27 53,40 19,0 38,0 58,0 -158,-122 -141,-246 -141,-246 28,-195 55,-391 83,-586zm937 -1697c-19,2 -38,4 -57,6 -19,15 -36,30 -53,45 -128,109 -119,206 -119,210 47,330 94,660 141,990 47,329 94,659 141,989 1,6 21,105 183,199 23,15 47,29 71,42 15,-1 30,-2 46,-2 -194,-114 -212,-238 -212,-238 0,0 0,0 0,0 -47,-331 -94,-661 -141,-991 -47,-329 -94,-659 -141,-989 0,0 -17,-124 141,-261zm-834 360c-23,159 -46,317 -68,474 -22,159 -45,317 -67,474 29,-6 60,-13 90,-20 22,-154 44,-309 66,-463 22,-155 44,-310 66,-465 -1,-1 -1,-1 -1,-2 -29,1 -58,2 -86,2zm3746 -685c0,0 -17,-132 141,-324 -19,7 -38,13 -57,20 -18,21 -36,43 -53,64 -129,154 -119,260 -119,261 47,354 94,708 141,1065 47,358 94,718 141,1080 0,4 19,113 182,199 24,13 48,25 72,38 15,-3 30,-6 46,-9 -194,-103 -212,-240 -212,-240 -47,-363 -94,-725 -141,-1085 -47,-357 -94,-714 -141,-1069 0,0 0,0 0,0zm-1681 1262c-28,207 -56,413 -83,619 -27,206 -56,410 -83,614 -1,6 -7,107 118,196 17,13 36,25 54,37 19,-2 38,-4 57,-7 -158,-110 -141,-241 -141,-241 0,0 0,0 0,0 23,-173 46,-347 69,-520 23,-174 47,-349 71,-524 -21,-58 -42,-116 -62,-174zm349 -1182c-14,16 -27,31 -39,47 -104,123 -75,216 -73,220 58,164 118,328 176,493 59,166 119,329 178,494 14,-45 28,-90 42,-136 -51,-142 -103,-285 -154,-426 -51,-143 -101,-286 -152,-428 -3,-7 -40,-126 88,-277 -22,4 -44,8 -66,13zm833 957c-54,179 -109,357 -163,532 -53,174 -108,348 -162,521 28,-5 57,-9 86,-14 43,-140 88,-282 131,-424 43,-144 88,-288 132,-433 -8,-61 -16,-121 -24,-182zm-4544 -431c0,165 0,331 1,496 29,2 59,3 89,5 -1,-165 -1,-331 -1,-496 0,0 0,0 0,-1 0,1 0,1 0,1 0,0 0,-125 176,-238 -17,-1 -35,-2 -52,-3 -21,13 -42,27 -62,40 -145,93 -150,192 -151,196zm89 1990c0,0 0,0 0,0 0,0 0,0 0,0 0,-166 0,-331 0,-497 -30,-1 -60,-2 -89,-3 0,132 0,265 0,397 0,33 0,67 0,100 1,3 6,101 151,209 20,16 41,31 62,46 17,1 35,1 52,2 -176,-130 -176,-254 -176,-254zm-1055 -2013c-30,-4 -60,-8 -88,-12 0,135 0,270 0,405 0,135 0,270 0,404 27,-3 57,-5 88,-7 0,-131 0,-263 0,-395 0,-131 0,-263 0,-395zm0 1213c-30,3 -60,6 -88,9 0,110 0,221 0,331 0,110 0,220 0,331 28,3 58,5 88,8 0,-113 0,-227 0,-340 0,-113 0,-226 0,-339zm-1758 543c0,4 5,110 149,239 20,18 42,37 63,54 17,2 34,5 51,7 -175,-155 -175,-288 -175,-288 0,-344 0,-687 0,-1030 0,-343 0,-687 0,-1031 -30,-6 -59,-13 -88,-18 0,344 0,689 0,1033 0,345 0,689 0,1034zm-704 -2246c0,69 0,138 0,206 0,4 5,115 150,263 9,9 17,18 26,26 0,-18 0,-37 0,-55 -88,-125 -88,-211 -88,-211 0,-69 0,-137 0,-206 -30,-7 -60,-14 -88,-23zm5877 3596c-35,0 -67,1 -100,2 -32,23 -65,47 -95,70 -225,170 -210,329 -207,336 82,546 165,1091 247,1639 83,549 165,1100 248,1652 2,11 37,177 322,362 43,27 85,55 127,81 25,2 53,3 80,4 -342,-222 -372,-431 -372,-431 0,0 0,0 0,0 -85,-553 -167,-1106 -250,-1655 -82,-550 -165,-1098 -247,-1645 0,0 -30,-205 247,-415zm-1472 537c-40,259 -82,517 -120,774 -37,257 -80,514 -117,772 52,-9 105,-18 157,-26 38,-253 78,-506 115,-759 38,-253 78,-507 118,-761 0,-1 0,-2 0,-3 -53,1 -103,2 -153,3zm-5733 -580c0,328 0,656 0,984 52,5 105,10 157,15 -2,-326 -2,-651 -2,-976 0,-1 0,-1 0,-1 0,1 0,1 0,1 0,0 0,-245 312,-432 -32,-6 -62,-11 -92,-16 -38,21 -75,43 -110,65 -255,159 -265,352 -265,360zm155 3928c0,1 0,1 0,1 0,0 0,-1 0,-1 0,-325 0,-651 0,-977 -53,2 -105,3 -155,4 0,263 0,526 0,788 0,67 0,132 0,197 0,7 10,202 265,379 35,24 72,49 110,73 30,-2 60,-6 92,-10 -312,-210 -312,-454 -312,-454zm-1862 -4100c-53,-10 -105,-20 -155,-29 0,298 0,595 0,891 0,298 0,595 0,891 50,-10 102,-19 155,-28 0,-287 0,-575 0,-863 0,-286 0,-575 0,-862zm0 2648c-53,14 -105,27 -155,40 0,243 0,487 0,730 0,243 0,486 0,729 50,-5 102,-10 155,-15 0,-247 0,-495 0,-742 0,-247 0,-495 0,-742zm10707 1235c50,2 102,5 155,8 0,-547 0,-1095 0,-1642 0,-548 0,-1095 0,-1643 -53,6 -105,10 -155,16 0,543 0,1087 0,1631 0,543 0,1087 0,1630zm1589 -3991c168,80 273,225 273,406 0,636 0,1271 0,1907 0,635 0,1269 0,1905 0,181 -105,334 -273,425 248,-37 427,-200 427,-413 0,-641 0,-1282 0,-1923 0,-642 0,-1283 0,-1924 0,-214 -179,-364 -427,-383zm-16220 -1053c88,727 174,1443 262,2148 87,696 178,1382 268,2057 25,-195 50,-391 77,-585 -75,-573 -150,-1153 -225,-1738 -75,-594 -150,-1197 -225,-1806 0,0 -47,-383 218,-651 -38,-14 -73,-28 -108,-41 -30,29 -57,58 -85,87 -212,220 -184,517 -182,529zm2339 167c-305,186 -352,440 -352,443 -125,821 -254,1659 -375,2515 -124,872 -247,1764 -370,2670 -2,10 -30,276 183,503 27,32 55,62 85,91 35,-7 70,-14 107,-22 -265,-279 -217,-620 -217,-620 122,-897 246,-1776 370,-2638 121,-845 249,-1673 374,-2488 3,-11 53,-305 403,-514 -25,-6 -50,-14 -73,-20 -45,27 -90,53 -135,80zm6831 1561c0,559 0,1119 0,1678 0,560 0,1119 0,1678 0,7 7,173 265,334 35,23 70,46 107,69 30,-1 60,-1 93,-1 -310,-198 -310,-407 -310,-407 0,-557 0,-1113 0,-1669 0,-557 0,-1115 0,-1672 0,0 0,-208 310,-391 -33,-3 -63,-4 -93,-8 -37,21 -72,43 -107,65 -260,154 -265,322 -265,324zm-1710 3425c0,-271 0,-543 0,-814 0,-271 0,-543 0,-815 -52,-70 -105,-139 -155,-210 0,308 0,617 0,924 0,308 0,616 0,924 0,6 10,184 265,351 35,23 73,46 110,70 30,-2 60,-5 93,-8 -313,-198 -313,-422 -313,-422zm0 -3576c0,0 0,-223 313,-405 -33,-4 -63,-8 -93,-12 -37,21 -75,42 -110,64 -257,154 -265,335 -265,336 0,129 0,257 0,384 155,220 310,437 465,650 155,210 310,419 468,624 0,-56 0,-113 0,-170 -260,-347 -520,-700 -778,-1060 0,-137 0,-274 0,-411zm12302 -731c0,791 0,1581 0,2372 0,791 0,1581 0,2372 0,8 10,244 264,529 35,42 73,83 110,125 30,6 60,10 93,15 -310,-351 -310,-650 -310,-650 0,-801 0,-1601 0,-2401 0,-800 0,-1600 0,-2401 0,0 0,-299 310,-688 -33,9 -63,18 -93,26 -37,48 -75,94 -110,140 -257,317 -264,558 -264,561zm-1862 4415c50,4 102,9 155,14 0,-657 0,-1313 0,-1969 0,-656 0,-1313 0,-1969 -53,9 -105,19 -155,28 0,649 0,1299 0,1949 0,648 0,1298 0,1947zm3741 402c0,-170 0,-342 0,-513 0,0 0,-344 310,-675 -30,-1 -60,-3 -90,-3 -38,40 -75,79 -110,118 -257,269 -265,536 -265,549 0,168 0,337 0,505 50,7 102,14 155,19zm-155 -5098c0,335 0,670 0,1004 0,335 0,669 0,1004 48,-17 100,-39 155,-63 0,-332 0,-662 0,-994 0,-331 0,-662 0,-994 -53,15 -105,29 -155,43zm2127 -1501c-255,422 -265,737 -265,750 0,524 0,1046 0,1569 50,-10 102,-22 155,-32 0,-530 0,-1061 0,-1591 0,0 0,0 0,0 0,0 0,0 0,0 0,0 0,-397 312,-919 -32,13 -62,25 -92,36 -38,63 -75,126 -110,187zm-537 3183c167,154 272,408 272,707 0,524 0,1049 0,1571 0,524 0,1048 0,1571 0,299 -105,545 -272,688 247,-48 427,-309 427,-663 0,-529 0,-1060 0,-1590 0,-529 0,-1059 0,-1590 0,-353 -180,-628 -427,-694zm-19196 5137c0,282 0,564 0,845 0,282 0,564 0,845 20,-9 40,-18 60,-28 0,-281 0,-562 0,-843 0,-282 0,-563 0,-844 0,0 0,-109 119,-268 -13,5 -25,10 -36,15 -14,19 -28,37 -41,56 -99,132 -102,222 -102,222zm770 988c-20,7 -40,13 -58,19 -2,128 -2,255 -2,383 0,16 0,31 2,47 0,3 3,87 100,144 14,9 28,17 42,24 10,-3 23,-7 35,-11 -119,-69 -119,-176 -119,-176 0,0 0,0 0,0 0,0 0,0 0,-1 0,-142 0,-286 0,-429zm3981 -1652c0,141 0,283 0,425 19,2 39,4 59,7 0,-142 0,-284 0,-426 0,0 0,-107 118,-198 -12,-2 -23,-3 -34,-4 -15,10 -29,21 -43,32 -97,76 -100,160 -100,164zm-710 1577c18,1 38,2 58,3 0,-94 0,-188 0,-282 0,-94 0,-188 0,-282 -18,4 -38,8 -58,12 0,92 0,183 0,275 0,91 0,183 0,274zm0 -888c18,-4 38,-9 58,-12 0,-115 0,-229 0,-344 0,-114 0,-229 0,-344 -20,-2 -40,-3 -58,-3 0,117 0,235 0,352 0,117 0,234 0,351zm769 1021c0,-1 0,-2 0,-2 0,-125 0,-249 0,-373 0,-124 0,-248 0,-372 0,-94 -68,-182 -164,-220 63,55 105,132 105,213 0,124 0,249 0,373 0,124 0,248 0,372 0,13 9,93 100,187 14,14 28,28 43,42 11,2 22,3 34,5 -109,-112 -117,-210 -118,-225zm-1404 -1802c0,283 0,566 0,850 0,283 0,566 0,849 0,3 3,87 101,179 14,12 28,26 42,38 11,1 22,1 34,1 -117,-110 -117,-216 -117,-216 0,-283 0,-566 0,-849 0,-283 0,-567 0,-850 0,0 0,-106 117,-208 -12,0 -23,-1 -34,-1 -14,12 -28,24 -42,36 -98,84 -101,170 -101,171zm-651 1736c0,-130 0,-260 0,-390 0,-130 0,-260 0,-390 -20,-32 -40,-63 -60,-94 0,146 0,293 0,439 0,146 0,293 0,439 0,3 3,87 102,169 14,12 28,23 42,35 10,-1 21,-2 33,-3 -117,-98 -117,-205 -117,-205zm0 -1712c0,0 0,-107 117,-218 -12,1 -23,1 -33,1 -14,13 -28,26 -42,40 -99,94 -102,180 -102,181 0,61 0,122 0,183 59,94 119,190 177,284 59,96 119,190 179,285 0,-28 0,-56 0,-84 -98,-158 -197,-317 -296,-476 0,-65 0,-130 0,-196zm-699 89c0,286 0,573 0,859 0,286 0,572 0,858 0,3 3,88 101,158 14,10 28,20 42,29 11,-2 22,-4 34,-6 -117,-85 -117,-192 -117,-192 0,-286 0,-571 0,-857 0,-285 0,-571 0,-857 0,0 0,-107 117,-230 -12,1 -23,3 -34,4 -14,15 -28,29 -42,44 -98,102 -101,189 -101,190zm-711 1822c19,-5 39,-12 59,-18 0,-267 0,-535 0,-802 0,-268 0,-536 0,-803 -20,5 -40,10 -59,14 0,268 0,537 0,805 0,268 0,536 0,804zm4053 -1105c20,-2 40,-4 60,-6 0,-98 0,-196 0,-294 0,-98 0,-197 0,-295 -20,-3 -40,-5 -60,-8 0,101 0,201 0,302 0,100 0,201 0,301zm0 1004c20,4 40,7 60,11 0,-113 0,-226 0,-339 0,-113 0,-226 0,-339 -20,2 -38,4 -60,5 0,111 0,221 0,332 0,110 0,220 0,330zm771 -1007c0,-182 0,-365 0,-548 0,-97 -70,-189 -164,-229 64,58 104,138 104,221 0,182 0,364 0,546 0,60 -20,114 -59,154 39,54 59,114 59,174 0,146 0,292 0,437 0,146 0,292 0,437 0,83 -40,149 -104,185 94,-7 164,-74 164,-172 0,-146 0,-292 0,-438 0,-146 0,-292 0,-438 0,-66 -31,-130 -80,-178 49,-32 80,-86 80,-151zm1160 -400c0,309 0,618 0,928 0,309 0,618 0,927 0,3 5,96 102,214 14,17 28,34 42,51 10,2 23,5 35,8 -119,-144 -119,-260 -119,-260 0,-310 0,-621 0,-930 0,-311 0,-621 0,-931 0,0 0,-117 119,-223 -12,-1 -25,-2 -35,-3 -14,13 -28,25 -42,37 -99,88 -102,181 -102,182zm-710 1644c20,4 40,9 60,13 0,-280 0,-561 0,-841 0,-280 0,-560 0,-840 -20,-3 -40,-5 -60,-8 0,279 0,559 0,838 0,279 0,559 0,838zm1495 -195c-19,2 -39,3 -60,4 -19,184 -37,368 -56,551 0,3 -6,96 80,213 11,15 23,31 36,47 12,3 24,6 38,9 -106,-144 -94,-263 -94,-263 19,-186 37,-373 56,-561zm631 -1575c-13,0 -26,-1 -38,-2 -12,14 -25,27 -37,40 -85,97 -80,195 -79,199 31,336 64,675 94,1013 31,340 64,682 96,1024 0,6 14,110 122,236 15,18 32,37 49,56 9,1 18,3 29,5 -129,-151 -142,-281 -142,-281 0,0 0,0 0,0 -32,-343 -64,-685 -95,-1026 -31,-340 -63,-679 -94,-1018 0,0 -11,-126 95,-246zm-562 274c-15,154 -32,307 -46,460 -14,153 -31,305 -45,457 20,-3 40,-6 62,-9 14,-150 29,-300 43,-450 14,-150 29,-301 45,-452 0,-1 0,-1 0,-2 -20,-1 -41,-2 -59,-4zm1254 822c19,-5 39,-9 59,-14 0,-120 0,-241 0,-361 0,-121 0,-241 0,-362 -20,-1 -40,-2 -59,-2 0,123 0,247 0,370 0,123 0,246 0,369zm59 1308c0,-150 0,-299 0,-449 0,-150 0,-300 0,-450 -19,4 -39,8 -59,11 0,147 0,293 0,440 0,146 0,292 0,438 0,4 3,109 101,235 13,18 27,37 41,54 11,2 23,4 36,5 -119,-152 -119,-284 -119,-284zm652 -2094c0,227 0,454 0,681 0,74 -22,144 -60,200 38,61 60,134 60,208 0,182 0,364 0,545 0,181 0,363 0,545 0,3 3,112 100,237 14,18 28,36 42,54 10,1 23,3 35,4 -119,-152 -119,-288 -119,-288 0,-182 0,-365 0,-546 0,-182 0,-364 0,-547 0,-81 -30,-156 -80,-209 50,-47 80,-118 80,-200 0,-227 0,-455 0,-682 0,-122 -67,-226 -163,-262 63,63 105,156 105,260zm653 2172c19,1 39,2 59,3 0,-351 0,-702 0,-1053 0,-351 0,-702 0,-1054 -20,1 -40,1 -59,1 0,351 0,702 0,1052 0,350 0,701 0,1051zm606 -2456c65,63 105,160 105,269 0,383 0,766 0,1149 0,383 0,765 0,1148 0,109 -40,204 -105,266 95,-31 163,-135 163,-263 0,-383 0,-767 0,-1150 0,-384 0,-767 0,-1151 0,-127 -68,-234 -163,-268zm684 242c0,1 0,3 0,4 0,374 0,748 0,1121 0,374 0,748 0,1121 0,24 0,48 0,72 0,4 3,119 100,237 14,17 28,34 43,51 11,-1 22,-1 34,-1 -118,-143 -118,-288 -118,-288 0,0 0,0 0,0 0,-387 0,-774 0,-1161 0,-387 0,-773 0,-1161 0,0 0,0 0,0 0,0 0,-145 118,-299 -12,1 -23,2 -34,2 -15,19 -29,37 -43,55 -97,127 -100,242 -100,247zm1372 -106c0,389 0,777 0,1165 0,388 0,775 0,1163 0,4 4,119 101,229 14,15 28,31 42,46 11,-1 23,-2 35,-3 -118,-133 -118,-278 -118,-278 0,-388 0,-776 0,-1164 0,-388 0,-776 0,-1164 0,0 0,-146 118,-304 -12,1 -24,3 -35,4 -14,19 -28,37 -42,56 -98,132 -101,249 -101,250zm-651 2397c0,-178 0,-356 0,-533 0,-178 0,-355 0,-534 -20,-42 -40,-86 -60,-128 0,200 0,400 0,600 0,200 0,401 0,601 0,3 3,119 102,230 14,15 28,31 42,47 10,-2 23,-3 35,-4 -119,-133 -119,-279 -119,-279zm0 -2341c0,0 0,-146 119,-301 -12,1 -25,2 -35,2 -14,19 -28,37 -42,56 -99,128 -102,246 -102,248 0,83 0,166 0,249 59,130 119,259 177,389 59,128 119,257 179,385 0,-38 0,-77 0,-116 -98,-213 -197,-428 -296,-644 0,-89 0,-178 0,-268zm2007 -216c0,188 0,375 0,563 20,-3 40,-6 60,-8 0,-188 0,-375 0,-563 0,0 0,-140 119,-294 -13,1 -25,3 -36,4 -14,18 -28,36 -41,54 -99,128 -102,239 -102,244zm-711 2319c20,-4 40,-8 60,-12 0,-127 0,-254 0,-382 0,-127 0,-255 0,-382 -20,10 -40,20 -60,30 0,124 0,249 0,373 0,124 0,249 0,373zm0 -1207c20,-10 40,-19 60,-29 0,-156 0,-311 0,-466 0,-156 0,-311 0,-467 -20,3 -40,5 -60,7 0,160 0,319 0,478 0,159 0,318 0,477zm771 1132c0,-1 0,-2 0,-3 0,-164 0,-328 0,-492 0,-164 0,-328 0,-492 0,-125 -69,-220 -163,-242 63,55 103,145 103,252 0,165 0,329 0,493 0,165 0,329 0,494 1,16 9,119 102,210 13,14 27,27 41,41 11,-3 23,-5 36,-8 -110,-107 -119,-234 -119,-253zm-10305 -11119c0,0 0,-129 176,-226 -17,-3 -34,-6 -51,-10 -21,12 -42,23 -63,34 -146,81 -150,185 -150,186 0,44 0,87 0,130 0,131 0,260 0,390 29,5 58,10 88,14 0,-172 0,-345 0,-518 0,0 0,0 0,0 0,0 0,0 0,0z"/>
   <path class="fil0" d="M19072 11853c0,-5 -1,-147 -118,-278 394,-44 789,-88 1185,-132 -119,155 -119,296 -119,296 0,188 0,376 0,564 -118,17 -237,33 -356,50 119,-159 119,-301 119,-301 0,-95 0,-189 0,-285 -159,19 -316,38 -473,58 0,176 0,351 0,527 0,175 0,351 0,526 -91,48 -173,90 -238,105 0,-188 0,-376 0,-565 0,-188 0,-377 0,-565zm948 2146c0,0 0,0 0,0 0,19 10,148 119,255 -396,80 -791,161 -1185,232 109,-146 118,-282 118,-302 0,-1 0,-2 0,-3 0,-152 0,-304 0,-456 0,-152 0,-304 0,-457 -67,-39 -118,-122 -118,-237 118,132 474,-214 829,-268 131,-20 237,90 237,245 0,165 0,330 0,494 0,165 0,329 0,494 0,1 0,2 0,3zm-237 43c0,0 0,0 0,0 0,-142 0,-284 0,-426 0,0 0,0 0,0 0,-190 0,-379 0,-569 -194,32 -308,146 -473,209 0,147 0,293 0,440 0,146 0,292 0,439 157,-31 314,-62 473,-93z"/>
   <g id="_1008615965632">
    <path class="fil2" d="M5087 12109l0 1987c0,0 439,-232 691,-311l0 -331c0,0 6,-80 -61,-80l49 -59c67,0 61,81 61,81l0 375 -49 58c-239,61 -740,325 -740,325l0 -1987 49 -58zm1314 -488c0,0 8,5 18,17l18 -23c394,-112 736,-174 736,-174 -31,43 -26,120 -26,120 0,0 0,1664 0,1713 0,49 52,88 52,88l-49 59c-350,55 -782,205 -775,198l11 -13c14,-32 10,-106 10,-106 0,0 0,-1660 0,-1726 0,-65 -44,-95 -44,-95l49 -58zm32 40c7,14 12,32 12,55 0,65 0,1726 0,1726 0,0 5,89 -15,113l-5 5c28,-5 372,-122 687,-182 -8,-14 -14,-29 -14,-46 0,-49 0,-1713 0,-1713 0,0 -5,-77 26,-119 0,0 -317,57 -691,161zm1333 -350c0,0 22,47 22,92l0 244 0 0 672 991 0 -1214c0,-45 23,-92 23,-92l49 -59c0,0 -23,48 -23,92l0 1345 0 419c0,0 -2,85 23,110l-49 58c-25,-25 -23,-110 -23,-110l0 -418 -672 -992 0 1405c0,0 3,82 -20,109l-49 59 -2 2 4 -4c21,-30 19,-107 19,-107 0,0 0,-1735 0,-1779 0,-45 -23,-93 -23,-93l49 -58zm1311 890l0 -728c0,0 -4,-88 -40,-124l49 -58c0,0 640,50 779,74l0 350c0,0 1,55 -28,89l0 1 -49 58c-9,10 -21,19 -36,23l49 -58c2,-1 5,-2 7,-2 9,-27 8,-52 8,-52l0 -351c-109,-18 -523,-53 -699,-67 8,31 9,59 9,59l0 728 -49 58zm53 180c0,0 79,21 328,-48 249,-69 349,-42 397,66l0 768c0,0 -5,94 32,131l-49 58c0,0 -198,-42 -754,-74 0,0 19,-60 19,-107 0,-48 0,-701 0,-701l27 -32c-35,1 -49,-3 -49,-3l49 -58zm2 843c365,20 575,46 677,61 -5,-32 -3,-60 -3,-60l0 -767c-48,-109 -148,-135 -397,-66 -124,34 -206,46 -257,49l0 675c0,48 -20,108 -20,108zm1310 -973l0 -675c0,0 -4,-53 -28,-77l49 -59 643 93c0,0 94,20 94,112 0,93 0,610 0,610 0,0 0,44 -31,81l-49 58c-5,6 -10,11 -16,16 48,22 105,61 105,123 0,109 0,857 0,857 0,0 -1,40 -22,66l-49 58c-16,18 -41,30 -82,18 -102,-29 -516,-100 -516,-100 0,0 -103,5 -103,-122 0,-127 0,-824 0,-824l49 -59c0,0 193,-50 391,-50l-49 58c-137,0 -272,25 -342,39l0 777c0,127 103,122 103,122 0,0 414,72 516,101 21,6 38,6 51,2 4,-15 4,-27 4,-27 0,0 0,-749 0,-858 0,-108 -173,-145 -173,-145l49 -58c47,0 80,-11 104,-27 11,-26 11,-47 11,-47 0,0 0,-518 0,-610 0,-93 -94,-113 -94,-113l-567 -81c1,4 1,7 1,7l0 676 -49 58zm1246 1342l-49 58 0 0 -8 8 15 -18c11,-16 22,-44 22,-89 0,-79 0,-1795 0,-1795 0,0 2,-76 -24,-121l49 -58c0,0 614,93 760,95l-12 14c-11,16 -25,49 -25,107 0,91 0,1849 0,1849 0,0 1,114 54,151l-49 58 -742 -185 49 -58 648 161c-9,-36 -9,-69 -9,-69 0,0 0,-1758 0,-1849 0,-69 21,-102 31,-114l5 -6c-116,-3 -525,-61 -689,-85 4,28 3,52 3,52 0,0 0,1715 0,1795 0,56 -18,86 -29,99zm1442 -705l99 -950c0,0 12,-83 -20,-124l49 -59c0,0 358,35 446,40 0,0 -29,47 -24,120 3,39 58,606 110,1136l-1 0c47,481 91,932 91,932 0,0 12,103 42,157l-49 58c-30,-54 -42,-156 -42,-156 0,0 -44,-452 -90,-933 0,0 -136,-28 -309,6 -106,21 -188,36 -266,31l-74 679c0,0 -7,53 -31,81l0 0 -49 58c-6,8 -14,14 -23,16l42 -50c9,-24 12,-46 12,-46l81 -743 0 0c-35,-5 -71,-16 -109,-32l49 -59c136,60 244,41 417,7 106,-21 198,-19 253,-14 -49,-510 -100,-1032 -103,-1069 -5,-74 24,-121 24,-121 -64,-3 -267,-22 -376,-33 3,32 -1,60 -1,60l-99 950 -49 58zm1354 -80l0 -813c0,0 5,-43 -29,-72l49 -58 627 30c0,0 115,12 115,111 0,100 0,717 0,717 0,0 9,105 -46,170l-43 51c36,12 93,47 93,143 0,140 0,1057 0,1057 0,0 0,164 51,207l-49 58c-51,-42 -51,-206 -51,-206 0,0 0,-917 0,-1057 0,-141 -121,-150 -121,-150l49 -58c17,-5 31,-12 43,-20 31,-62 25,-136 25,-136 0,0 0,-618 0,-717 0,-99 -115,-111 -115,-111l-549 -27c0,6 0,9 0,9l0 814 -49 58zm514 192c0,0 -147,9 -379,73 0,0 -28,8 -70,10l0 988c0,0 -4,98 -45,148l-49 58 -17 16 31 -38c28,-51 31,-125 31,-125l0 -1047 0 0c-27,-2 -58,-7 -88,-18l48 -58c108,37 208,7 208,7 232,-63 379,-72 379,-72l-49 58zm810 1439c0,0 53,-70 53,-154 0,-85 0,-2218 0,-2218 0,0 6,-111 -39,-144l49 -58 624 -1c0,0 118,11 118,132 0,120 0,2278 0,2278 0,0 2,71 -34,114l-49 59c-17,19 -41,34 -77,34 -117,0 -600,-41 -600,-41l49 -59c0,0 483,41 600,41 19,0 35,-4 48,-11 15,-38 14,-79 14,-79 0,0 0,-2157 0,-2278 0,-120 -118,-132 -118,-132l-544 1c10,41 8,86 8,86 0,0 0,2133 0,2217 0,85 -53,155 -53,155l-49 58zm1371 -2652l0 2647 -49 58 0 -2647 49 -58zm619 -74c0,0 46,83 46,163l0 337 665 1397 0 -1728c0,0 -3,-107 33,-150l0 0 49 -58c6,-8 14,-13 23,-15l-41 47c-17,50 -15,118 -15,118 0,0 0,2364 0,2451 0,88 38,164 38,164l-49 59c0,0 -38,-77 -38,-164l0 -563 -665 -1397 0 1942c0,0 7,128 -37,181l-49 59 -5 5 9 -11c40,-56 33,-175 33,-175l0 -2104 0 -337c0,-79 -46,-163 -46,-163l49 -58zm1367 1123l0 -995c0,0 -7,-112 -43,-149l49 -58 748 -73 0 511c0,0 6,92 -31,136l-49 58 -17 15 31 -36c21,-47 17,-115 17,-115l0 -510 -673 65c14,45 17,98 17,98l0 995 -49 58zm38 272c0,0 96,-4 266,-109 169,-104 389,-186 439,-96 0,0 17,41 17,110 0,68 0,1000 0,1000 0,0 -1,99 39,119l-49 58 -773 158c0,0 38,-77 38,-166 0,-88 0,-956 0,-956l49 -59c0,0 0,868 0,957 0,89 -38,165 -38,165l695 -141c-10,-35 -10,-77 -10,-77 0,0 0,-931 0,-1000 0,-69 -17,-110 -17,-110 -50,-90 -270,-8 -439,97 -170,104 -266,108 -266,108l49 -58z"/>
   </g>
   <path class="fil3" d="M5062 12138l0 1987c0,0 501,-265 740,-325l0 -375c0,0 6,-80 -61,-80m13437 -208c0,0 97,-4 266,-108 170,-105 389,-187 440,-97 0,0 17,41 17,110 0,69 0,1000 0,1000 0,0 -2,99 38,119l-772 157c0,0 38,-76 38,-165 0,-89 0,-956 0,-956m-15 -390l0 -995c0,0 -7,-113 -43,-149l747 -73 0 511c0,0 8,119 -48,151m-2026 -10l714 1500m38 727c0,0 -38,-77 -38,-165 0,-87 0,-2451 0,-2451 0,0 -5,-149 55,-165m-815 54c0,0 46,83 46,163 0,79 0,2441 0,2441 0,0 7,136 -43,185m-623 -2715l0 2647m-1321 -53c0,0 53,-70 53,-155 0,-84 0,-2217 0,-2217 0,0 5,-111 -40,-144l625 -1c0,0 117,12 117,132 0,120 0,2278 0,2278 0,0 6,148 -111,148 -116,0 -599,-41 -599,-41m-1353 -1356l0 1047c0,0 -6,123 -63,162m560 -1292c0,0 -147,9 -378,73 0,0 -101,29 -208,-8m72 -257l0 -814c0,0 5,-42 -29,-71l627 30c0,0 115,12 115,112 0,99 0,717 0,717 0,0 16,178 -117,214 0,0 122,9 122,149 0,141 0,1057 0,1057 0,0 0,164 50,207m-2128 -1268l-80 743c0,0 -12,85 -55,96m752 -871c0,0 -135,-28 -309,6 -173,34 -280,53 -416,-7m115 -220l99 -950c0,0 12,-83 -20,-124 0,0 357,34 446,39 0,0 -29,47 -24,121 5,73 200,2067 200,2067 0,0 12,103 42,157m-2242 -539c0,0 37,-28 37,-107 0,-80 0,-1795 0,-1795 0,0 1,-77 -24,-121 0,0 614,93 759,95 0,0 -37,30 -37,121 0,91 0,1849 0,1849 0,0 2,114 54,151l-742 -185m-1236 -1416l0 -675c0,0 -4,-54 -28,-77l643 92c0,0 94,20 94,113 0,92 0,609 0,609 0,0 -2,133 -164,133 0,0 173,37 173,145 0,109 0,858 0,858 0,0 -3,112 -105,83 -102,-29 -516,-101 -516,-101 0,0 -103,6 -103,-121 0,-127 0,-825 0,-825 0,0 193,-50 392,-50m-1748 4c0,0 80,21 328,-48 249,-68 350,-42 397,67l0 767c0,0 -4,95 32,131 0,0 -197,-42 -754,-74 0,0 20,-60 20,-107 0,-48 0,-701 0,-701m-27 -273l0 -728c0,0 -4,-88 -39,-124 0,0 639,51 779,74l0 351c0,0 0,95 -65,112m-2012 -181l721 1063m22 -1436c0,0 -22,47 -22,91 0,45 0,1764 0,1764 0,0 -3,85 22,110m-765 -1928c0,0 22,47 22,92 0,45 0,1780 0,1780 0,0 3,86 -22,111m-1365 -1673c0,0 44,30 44,95 0,66 0,1726 0,1726 0,0 5,102 -21,118 -26,15 417,-141 774,-198 0,0 -52,-39 -52,-88 0,-49 0,-1713 0,-1713 0,0 -5,-77 27,-119 0,0 -343,62 -736,173"/>
   <path class="fil1" d="M7130 2735c0,0 180,185 -58,397 -239,212 -54,320 52,215 105,-105 257,-369 6,-612z"/>
   <path class="fil1" d="M6627 1722c0,0 226,386 -263,643 -489,258 -223,517 -2,384 221,-133 587,-513 265,-1027z"/>
   <path class="fil1" d="M6511 4262c-1392,-617 -1077,-1983 -127,-2310 0,0 -475,-82 -906,397 -432,480 -210,1603 1033,1913zm128 -1765c194,-357 166,-789 -177,-1132 -607,-607 -1445,-353 -1915,260 125,139 121,352 -12,486 -78,77 -182,111 -283,101 -32,114 -53,233 -60,355 56,15 109,45 153,89 137,138 137,361 0,498 -20,20 -41,37 -64,51 93,268 258,538 516,795 718,718 2178,791 2944,161l11 -9c591,-480 169,-713 49,-355 -23,69 -42,146 -71,201 -253,483 -919,274 -1225,-32 -353,-353 -361,-915 -19,-1257 171,-171 452,-167 628,10 176,176 181,457 10,628 193,-193 188,-511 -11,-710 -130,-130 -311,-177 -474,-140zm936 1760c-19,35 -1209,671 -2262,-382 -666,-665 -682,-1729 -36,-2375 323,-323 855,-314 1188,18 268,269 325,667 168,980 -85,21 -164,63 -230,129 -386,385 -376,1021 22,1419 315,315 779,386 1150,211z"/>
   <g id="_1008615964832">
    <path class="fil2" d="M6061 4464c0,0 -642,-116 -1077,-611 -126,-157 -230,-350 -289,-585 -266,-1046 352,-1756 352,-1756l-49 -59c0,0 -618,711 -352,1757 63,250 177,452 314,615l49 58c435,519 1101,640 1101,640l-49 -59z"/>
   </g>
   <path class="fil3" d="M6086 4493c0,0 -1150,-208 -1416,-1254 -265,-1046 352,-1757 352,-1757"/>
   <path class="fil1" d="M18108 2735c0,0 -180,185 58,397 239,212 53,320 -52,215 -105,-105 -258,-369 -6,-612z"/>
   <path class="fil1" d="M18611 1722c0,0 -226,386 263,643 489,258 222,517 1,384 -221,-133 -587,-513 -264,-1027z"/>
   <path class="fil1" d="M18727 4262c1392,-617 1077,-1983 127,-2310 0,0 474,-82 906,397 432,480 209,1603 -1033,1913zm-128 -1765c-194,-357 -167,-789 176,-1132 608,-607 1446,-353 1916,260 -125,139 -121,352 12,486 77,77 182,111 283,101 32,114 53,233 60,355 -56,15 -109,45 -153,89 -138,138 -138,361 0,498 20,20 41,37 63,51 -92,268 -258,538 -515,795 -718,718 -2179,791 -2944,161l-11 -9c-591,-480 -170,-713 -50,-355 24,69 43,146 72,201 253,483 919,274 1225,-32 352,-353 361,-915 19,-1257 -171,-171 -452,-167 -628,10 -177,176 -181,457 -10,628 -193,-193 -188,-511 11,-710 130,-130 310,-177 474,-140zm-937 1760c19,35 1209,671 2262,-382 666,-665 683,-1729 37,-2375 -323,-323 -855,-314 -1188,18 -269,269 -326,667 -168,980 84,21 164,63 229,129 386,385 377,1021 -21,1419 -315,315 -779,386 -1151,211z"/>
   <g id="_1008615962208">
    <path class="fil2" d="M19176 4464c0,0 642,-116 1078,-611 125,-157 229,-350 289,-585 266,-1046 -352,-1756 -352,-1756l49 -59c0,0 618,711 352,1757 -64,250 -177,452 -314,615l-49 58c-435,519 -1102,640 -1102,640l49 -59z"/>
   </g>
   <path class="fil3" d="M19152 4493c0,0 1150,-208 1415,-1254 266,-1046 -351,-1757 -351,-1757"/>
  </g>
 </g>
</svg>
